<svg width="260" height="96" viewBox="0 0 260 96" fill="none" xmlns="http://www.w3.org/2000/svg">
<path d="M241.692 0.0122804C241.896 0.0343971 242.15 -0.0579162 242.33 0.0670914C242.179 0.120941 242.013 0.121902 241.862 0.13248C241.871 0.171905 241.889 0.250756 241.899 0.290182C241.706 0.326722 241.46 0.277681 241.357 0.483463C241.206 0.517119 241.058 0.549813 240.912 0.580584L240.926 0.675782C240.767 0.70463 240.575 0.700783 240.493 0.86714C240.35 0.907527 240.165 0.884448 240.117 1.05657C239.947 1.08831 239.787 1.14023 239.662 1.25755C239.484 1.30178 239.307 1.33928 239.133 1.37294C239.116 1.57968 238.903 1.53641 238.761 1.56622C238.703 1.70854 238.538 1.71142 238.423 1.76142L238.431 1.84316C238.276 1.87105 238.125 1.90278 237.977 1.9374C237.883 2.09125 237.694 2.09125 237.542 2.12972L237.572 2.22203C237.412 2.2528 237.236 2.26145 237.128 2.39608C236.714 2.58744 236.274 2.7461 235.895 2.99227C235.786 3.03073 235.683 3.06823 235.583 3.10766C235.434 3.20767 235.263 3.26151 235.12 3.36248C234.983 3.42114 234.828 3.4471 234.726 3.55961C234.582 3.59423 234.422 3.60577 234.35 3.75193C234.074 3.84424 233.799 3.95098 233.57 4.13272C233.44 4.19042 233.27 4.19715 233.211 4.34043C233.063 4.37697 232.859 4.34139 232.815 4.5289C232.687 4.54909 232.545 4.55005 232.519 4.70679C232.363 4.74333 232.213 4.77891 232.064 4.81257L232.089 4.91738C231.939 4.95969 231.705 4.89911 231.671 5.09816C231.246 5.19432 230.913 5.49723 230.499 5.61646C230.44 5.75974 230.261 5.73955 230.148 5.79244L230.172 5.87129C229.758 5.98379 229.433 6.2915 229.011 6.38286L229.02 6.45209C228.774 6.52806 228.57 6.69634 228.321 6.75499L228.345 6.83673C228.221 6.86846 228.099 6.90308 227.982 6.94058C227.896 7.06751 227.748 7.10502 227.616 7.15406C227.372 7.32714 227.102 7.47235 226.809 7.53485L226.814 7.59639C226.702 7.62812 226.618 7.69159 226.565 7.78679C226.421 7.82717 226.269 7.85506 226.17 7.97238C226.052 8.01565 225.938 8.05892 225.824 8.10027L225.843 8.18585C225.693 8.22047 225.544 8.25797 225.401 8.29836C225.347 8.42336 225.222 8.4599 225.111 8.50222C225.001 8.60126 224.867 8.65415 224.734 8.70223C224.428 8.93589 224.063 9.08879 223.723 9.26765L223.731 9.34169C223.609 9.37534 223.49 9.41092 223.376 9.4465C223.279 9.5744 223.125 9.6119 222.983 9.65132C222.96 9.80614 222.814 9.80614 222.695 9.83114C222.593 9.94076 222.451 9.99173 222.317 10.036C222.202 10.1235 222.09 10.21 221.978 10.2956C221.863 10.3446 221.753 10.3975 221.655 10.4696C221.456 10.5831 221.25 10.6802 221.059 10.8014C220.961 10.912 220.814 10.9456 220.688 10.9966C220.59 11.087 220.469 11.136 220.351 11.1803L220.353 11.2485C220.232 11.3033 220.062 11.2995 220.021 11.4534C219.958 11.461 219.833 11.4774 219.77 11.4851C219.77 11.5216 219.771 11.5947 219.771 11.6322C219.614 11.6755 219.374 11.6313 219.37 11.8505C219.311 11.8553 219.195 11.8659 219.136 11.8707C218.965 12.138 218.584 12.164 218.339 12.3496C218.306 12.389 218.239 12.4659 218.206 12.5044C218.154 12.5082 218.05 12.515 217.998 12.5188C217.958 12.6794 217.799 12.689 217.673 12.7265C217.638 12.765 217.567 12.8419 217.532 12.8804C217.48 12.8871 217.377 12.9006 217.326 12.9073C217.194 13.1169 216.944 13.1919 216.741 13.3054C216.634 13.4102 216.492 13.4564 216.357 13.4996C216.318 13.641 216.17 13.6487 216.058 13.6871C215.874 13.866 215.656 14.0016 215.415 14.0872C215.336 14.1574 215.251 14.2179 215.162 14.2699L215.161 14.3266C214.925 14.3872 214.734 14.5382 214.53 14.6574C214.405 14.7574 214.261 14.817 214.108 14.8411C214.11 14.8776 214.114 14.9507 214.115 14.9872C214.052 14.9959 213.927 15.0141 213.865 15.0228C213.625 15.2805 213.284 15.4459 212.978 15.619C212.767 15.7767 212.485 15.8488 212.337 16.0757C212.275 16.0815 212.151 16.0931 212.089 16.0988C212.087 16.1373 212.084 16.2133 212.083 16.2517C211.919 16.2681 211.772 16.32 211.675 16.4546C211.599 16.5114 211.526 16.5671 211.454 16.6239C211.317 16.6652 211.171 16.6921 211.078 16.8085C210.983 16.8787 210.891 16.9479 210.801 17.0172C210.7 17.0614 210.598 17.1066 210.503 17.1537C210.314 17.3537 210.071 17.5085 209.793 17.5355C209.792 17.573 209.791 17.648 209.79 17.6855C209.738 17.6864 209.635 17.6893 209.583 17.6903L209.586 17.7835C209.469 17.8412 209.3 17.8509 209.265 18.0028C209.221 18.0038 209.134 18.0066 209.09 18.0086C209.093 18.048 209.099 18.1288 209.102 18.1682C208.965 18.197 208.828 18.2278 208.697 18.2615C208.589 18.5221 208.253 18.5182 208.099 18.7374C207.963 18.7903 207.827 18.8461 207.737 18.9605C207.618 19 207.501 19.0384 207.387 19.075C207.388 19.1134 207.39 19.1904 207.391 19.2279C207.327 19.2327 207.197 19.2432 207.133 19.2481C206.93 19.5567 206.496 19.6058 206.272 19.9039C206.227 19.9183 206.139 19.9462 206.093 19.9606C205.951 20.0558 205.808 20.151 205.693 20.275C205.437 20.3443 205.207 20.4779 205.031 20.6741C204.907 20.703 204.775 20.7212 204.754 20.8664C204.624 20.8972 204.485 20.9193 204.449 21.0693C204.409 21.0732 204.329 21.0818 204.288 21.0857C204.291 21.1241 204.296 21.202 204.299 21.2405C204.148 21.2732 203.999 21.3174 203.86 21.3703C203.772 21.4511 203.676 21.5174 203.581 21.5828C203.49 21.7049 203.34 21.7386 203.208 21.7847C203.098 21.9569 202.93 22.0646 202.747 22.1396L202.777 22.2223C202.647 22.255 202.481 22.2415 202.44 22.3963C202.202 22.4656 202.057 22.6992 201.801 22.7156L201.805 22.7906C201.685 22.8127 201.606 22.879 201.567 22.9887C201.525 22.9906 201.439 22.9954 201.396 22.9983C201.401 23.0435 201.41 23.1348 201.415 23.181C201.303 23.1877 201.192 23.1964 201.085 23.205C201.051 23.2444 200.984 23.3243 200.951 23.3646C200.64 23.5377 200.377 23.7974 200.031 23.9012C199.929 24.007 199.832 24.1147 199.739 24.2253C199.686 24.2291 199.579 24.2387 199.526 24.2426C199.503 24.3839 199.372 24.4186 199.261 24.4628C199.183 24.558 199.072 24.6099 198.97 24.6638C198.909 24.7349 198.844 24.7984 198.772 24.8532C198.668 24.9119 198.57 24.9734 198.474 25.0359C198.354 25.1196 198.236 25.2023 198.12 25.2878C197.961 25.4138 197.796 25.534 197.611 25.6157C197.419 25.7542 197.237 25.9042 197.055 26.0533C196.881 26.1264 196.735 26.2398 196.596 26.361C193.384 28.5746 190.232 30.8747 187.086 33.1797C184.272 35.2288 181.503 37.3395 178.706 39.4118C172.697 43.9092 166.714 48.4392 160.712 52.9472C159.479 53.9001 158.204 54.7992 156.983 55.7685C156.996 55.8378 157.01 55.9089 157.023 55.9801L156.905 55.7858C151.183 60.0832 145.385 64.2787 139.547 68.4145C133.242 72.7032 126.786 76.8121 119.905 80.1209C116.276 81.8672 112.511 83.3586 108.604 84.3587C106.277 84.9395 103.91 85.3943 101.512 85.5299C99.0048 85.6828 96.4778 85.5338 94.0181 85.0222C92.012 84.6145 90.0685 83.9298 88.2172 83.0644C85.2278 81.5845 82.5691 79.4748 80.3487 76.9929C79.2356 75.6707 78.1581 74.3187 77.0854 72.9638C71.9371 66.6932 65.5278 61.4987 58.4359 57.5792C54.7228 55.5647 50.8972 53.7569 46.9716 52.1972C44.0774 51.0606 41.1418 50.0114 38.1428 49.1883C38.1044 49.1806 38.0275 49.1643 37.989 49.1566L38.0121 49.0652C37.693 49.0441 37.3777 48.9893 37.0624 48.947L37.074 48.8479C36.8356 48.7998 36.5712 48.8181 36.3646 48.6748C36.0733 48.6066 35.7763 48.5796 35.4803 48.5508C35.389 48.3412 35.1448 48.419 34.966 48.3902C34.7276 48.1421 34.3018 48.2479 33.9846 48.1786L34 48.0777C33.7972 48.0488 33.5934 48.0229 33.3887 48.0142C33.3868 47.9854 33.3829 47.9267 33.381 47.8979C33.1465 47.8536 32.8091 47.9873 32.6678 47.7353C32.1929 47.7103 31.7229 47.6286 31.249 47.5969C30.9808 47.319 30.5089 47.5575 30.2061 47.3257C29.8716 47.2795 29.5352 47.2555 29.2007 47.2113C28.8431 47.0372 28.4288 47.0824 28.0501 46.9863C28.3846 46.9161 28.722 46.8574 29.0642 46.8343L29.07 46.742C29.3997 46.7218 29.7284 46.6843 30.0581 46.6661L30.035 46.5622C30.5483 46.5699 31.0529 46.4574 31.5653 46.4535V46.3545C31.9565 46.3564 32.341 46.2766 32.7312 46.2641L32.7149 46.1603C33.1657 46.1689 33.6107 46.0766 34.0615 46.067L34.0663 45.9689C34.4864 45.9602 34.9026 45.8872 35.3236 45.8824L35.3198 45.7843C35.7129 45.7997 36.0983 45.7016 36.4915 45.7093L36.4742 45.5996C37.0682 45.6275 37.6555 45.5083 38.2486 45.5102C38.4206 45.5093 38.5898 45.4746 38.757 45.4381C40.3728 45.2169 42.005 45.1352 43.6294 45.0015C44.037 44.9967 44.458 44.8756 44.8579 45.0025C48.7758 46.3391 52.5543 48.0604 56.2107 49.9951C62.1712 53.1857 67.875 56.9244 72.8714 61.4987C74.8698 63.3103 76.7557 65.247 78.5156 67.2904C79.6806 68.6106 80.6572 70.079 81.7617 71.4483C84.0224 74.3687 86.6773 77.114 90.0252 78.7709C93.4356 80.3969 97.2554 81.1037 101.024 80.9402C105.377 80.77 109.64 79.6565 113.709 78.1516C117.404 76.7746 120.975 75.0793 124.439 73.1994C130.921 69.7155 137.119 65.7326 143.19 61.5814C146.146 59.5418 149.109 57.5129 152.021 55.4108C164.059 46.8536 175.881 37.9925 188.045 29.6141C189.851 28.3592 191.663 27.112 193.502 25.9071C193.569 25.8677 193.626 25.8148 193.673 25.7494C193.787 25.7013 193.893 25.6311 193.983 25.5407C194.029 25.5263 194.121 25.4984 194.167 25.485C194.398 25.2253 194.738 25.0801 195.03 24.8936C195.121 24.8253 195.214 24.758 195.313 24.6926C195.491 24.5436 195.687 24.4195 195.899 24.3195C196.052 24.2003 196.226 24.1089 196.385 23.9955C196.428 23.981 196.514 23.9531 196.557 23.9397C196.671 23.7387 196.897 23.657 197.046 23.4887C197.091 23.4772 197.182 23.4531 197.227 23.4406C197.365 23.3368 197.51 23.2377 197.623 23.1021C197.676 23.0954 197.782 23.081 197.835 23.0742C197.868 23.0262 197.935 22.929 197.967 22.88C198.117 22.83 198.328 22.83 198.381 22.6406C198.442 22.6319 198.567 22.6156 198.63 22.6069C198.628 22.5665 198.626 22.4867 198.625 22.4473C198.684 22.4367 198.805 22.4156 198.865 22.405C198.93 22.3021 199.037 22.2463 199.143 22.1867C199.239 22.1175 199.344 22.0675 199.457 22.0194C199.492 21.879 199.624 21.8636 199.748 21.8357C199.793 21.7088 199.915 21.6742 200.032 21.6319C200.12 21.5607 200.212 21.4895 200.304 21.4165C200.396 21.3463 200.5 21.2982 200.61 21.2482C200.673 21.1145 200.821 21.1001 200.95 21.0597C200.98 21.0164 201.038 20.9318 201.067 20.8885C201.131 20.8866 201.257 20.8828 201.32 20.8808C201.319 20.8385 201.316 20.753 201.314 20.7106C201.38 20.7058 201.509 20.6943 201.575 20.6885C201.589 20.5251 201.731 20.5077 201.864 20.4827C201.888 20.3337 202.023 20.3202 202.15 20.2952C202.184 20.1548 202.339 20.1481 202.449 20.0952C202.603 19.7856 203.028 19.85 203.185 19.5625C203.247 19.5538 203.371 19.5365 203.433 19.5279C203.432 19.4894 203.43 19.4125 203.428 19.374C203.492 19.3654 203.62 19.3471 203.685 19.3384C203.804 19.1221 204.061 19.0567 204.26 18.9336C204.353 18.8653 204.451 18.8009 204.553 18.7384C204.895 18.5817 205.16 18.2826 205.53 18.1845C205.57 18.0749 205.648 18.0105 205.767 17.9903L205.758 17.9191C205.905 17.8864 206.053 17.8393 206.181 17.7489C206.245 17.6787 206.311 17.6085 206.377 17.5374C206.464 17.5162 206.555 17.4951 206.649 17.4739C206.843 17.2585 207.153 17.1816 207.325 16.947C207.391 16.9421 207.523 16.9325 207.588 16.9277C207.583 16.8854 207.574 16.8008 207.569 16.7585C207.754 16.7171 207.942 16.6719 208.133 16.6296C208.133 16.6008 208.134 16.5421 208.135 16.5133C208.342 16.3181 208.722 16.3604 208.85 16.0911C208.903 16.0834 209.008 16.069 209.061 16.0613C209.102 15.8536 209.411 15.9411 209.428 15.7123C209.485 15.7055 209.598 15.6921 209.655 15.6863C209.665 15.4853 209.875 15.5151 210.023 15.4757C210.099 15.3872 210.179 15.3017 210.263 15.217C210.497 15.1497 210.701 15.0122 210.891 14.8613C211.029 14.5939 211.434 14.7026 211.547 14.4507C211.66 14.417 211.804 14.417 211.842 14.2747C212.093 14.1987 212.353 14.0968 212.524 13.8862C212.709 13.8429 212.886 13.7631 213.014 13.6131C213.065 13.6054 213.167 13.59 213.218 13.5814C213.296 13.4919 213.386 13.4102 213.503 13.3669C213.647 13.1919 213.98 13.2727 214.037 13.0217C214.104 13.0159 214.239 13.0034 214.306 12.9977L214.275 12.8832C214.336 12.8669 214.457 12.8342 214.517 12.8169L214.491 12.7207C214.645 12.6957 214.808 12.664 214.914 12.5332C215.024 12.4938 215.154 12.4688 215.213 12.3476C215.522 12.2332 215.842 12.1034 216.085 11.8716C216.145 11.8659 216.264 11.8543 216.325 11.8486C216.324 11.8101 216.321 11.7322 216.32 11.6938C216.382 11.6832 216.507 11.663 216.57 11.6534C216.695 11.5639 216.829 11.4841 216.948 11.3803C217.071 11.3245 217.261 11.3389 217.314 11.1822C217.455 11.1399 217.621 11.1197 217.706 10.9764C217.769 10.9658 217.895 10.9437 217.959 10.9322C217.957 10.8985 217.952 10.8302 217.95 10.7966C218.222 10.7572 218.51 10.6447 218.679 10.4139C218.742 10.4081 218.87 10.3966 218.934 10.3908C218.933 10.3514 218.93 10.2725 218.928 10.2331C219.26 10.2523 219.489 10.0004 219.789 9.91095L219.772 9.82441C219.906 9.7946 220.042 9.76191 220.18 9.73017L220.155 9.63594C220.307 9.60901 220.465 9.57439 220.583 9.459C220.81 9.32919 221.064 9.24264 221.268 9.07148C221.392 9.02532 221.521 8.98205 221.654 8.93686C221.74 8.83204 221.87 8.79165 221.999 8.75511L221.985 8.67146C222.117 8.64068 222.25 8.60799 222.388 8.57626L222.378 8.49356C222.527 8.45606 222.686 8.41856 222.791 8.29066C222.923 8.25028 223.058 8.21181 223.197 8.17239C223.237 8.01372 223.391 8.01276 223.528 7.98776L223.511 7.8916C223.615 7.86468 223.722 7.83871 223.833 7.81179L223.818 7.72428C223.992 7.68678 224.164 7.64062 224.34 7.58966C224.402 7.45023 224.547 7.43773 224.681 7.40792L224.671 7.31561C224.802 7.28772 224.936 7.25695 225.074 7.2281L225.056 7.13771C225.321 7.06847 225.605 6.99251 225.79 6.77038C226.059 6.7223 226.306 6.60018 226.535 6.44921L226.518 6.37997C226.677 6.34632 226.839 6.31074 227.003 6.27516L226.995 6.18861C227.286 6.129 227.534 5.95495 227.815 5.85782C227.928 5.7684 228.066 5.71262 228.208 5.67128C228.457 5.50396 228.743 5.40491 229.022 5.29529L229.002 5.21067C229.149 5.16932 229.386 5.23279 229.432 5.03374C229.6 4.99239 229.816 5.01066 229.916 4.83276C230.05 4.79718 230.185 4.76353 230.325 4.72795C230.442 4.59429 230.622 4.57121 230.786 4.51832C230.889 4.39716 231.046 4.36639 231.194 4.32023C231.325 4.2058 231.491 4.15484 231.667 4.1433C231.862 3.90386 232.204 3.86059 232.483 3.76731L232.468 3.67981C232.629 3.64615 232.792 3.61154 232.958 3.57692L232.941 3.47499C233.103 3.44518 233.268 3.41345 233.436 3.38364L233.422 3.28748C233.576 3.25767 233.756 3.2519 233.862 3.10766C234.175 3.04612 234.453 2.87688 234.763 2.79226C234.891 2.67783 235.056 2.63455 235.223 2.59224C235.34 2.50955 235.472 2.45281 235.61 2.40377C235.793 2.28646 236.011 2.25857 236.225 2.22876L236.218 2.14029C236.364 2.10664 236.511 2.06914 236.663 2.03067C236.789 1.87682 236.996 1.87489 237.179 1.83547L237.162 1.75181C237.489 1.66719 237.795 1.51237 238.129 1.43737C238.29 1.31813 238.486 1.2787 238.684 1.24697C238.813 1.1787 238.96 1.12389 239.05 0.996955C239.26 0.963299 239.472 0.92772 239.686 0.888295L239.679 0.795982C240.026 0.767134 240.316 0.545966 240.662 0.501733L240.63 0.396919C240.795 0.389226 240.959 0.380572 241.131 0.372879C241.13 0.332492 241.126 0.253641 241.123 0.213254C241.321 0.2046 241.519 0.194984 241.723 0.188253C241.715 0.144019 241.7 0.0555522 241.692 0.0122804Z" fill="#FFBC00"/>
<path d="M258.242 2.72304C258.785 2.68938 259.276 2.4086 259.828 2.4009C259.819 2.63457 259.584 2.67207 259.422 2.76246C259.257 2.84901 259.075 2.88843 258.897 2.91055C258.903 2.9394 258.918 2.99805 258.925 3.02786C258.785 3.0519 258.65 3.07594 258.517 3.09902L258.523 3.19326C258.383 3.22115 258.25 3.25192 258.118 3.28173L258.138 3.36731C257.987 3.40769 257.766 3.375 257.714 3.5577C257.499 3.59713 257.287 3.63848 257.076 3.67887L257.1 3.75579C256.943 3.80676 256.795 3.86638 256.662 3.95773C256.542 3.976 256.425 3.99235 256.313 4.00869C256.315 4.04427 256.319 4.11543 256.322 4.15197C256.123 4.16351 255.911 4.1587 255.79 4.33852C255.624 4.37891 255.459 4.41737 255.299 4.4568C255.228 4.63085 255.039 4.60777 254.892 4.63277C254.801 4.82509 254.552 4.78663 254.383 4.83374L254.411 4.93375C254.267 4.96164 254.129 4.98952 253.993 5.01548L254.008 5.11453C253.793 5.16549 253.577 5.20492 253.361 5.20684C253.439 5.23665 253.521 5.2655 253.604 5.29531C253.455 5.34147 253.226 5.28569 253.196 5.48571C252.846 5.5184 252.559 5.74149 252.219 5.80784C252.118 5.93477 251.954 5.94439 251.813 5.97708C251.724 6.14728 251.506 6.13478 251.352 6.18863C251.287 6.37422 251.065 6.32326 250.916 6.36364L250.934 6.45596C250.801 6.49057 250.632 6.47423 250.586 6.62904C250.425 6.68674 250.156 6.62424 250.132 6.84829C250.004 6.85406 249.879 6.86079 249.757 6.86656C249.759 6.90598 249.765 6.98387 249.767 7.0233C249.374 6.99926 249.078 7.28678 248.705 7.33101L248.725 7.43679C248.583 7.46083 248.442 7.48487 248.306 7.50891L248.337 7.60699C248.198 7.63391 248.06 7.66372 247.928 7.69257L247.945 7.79642C247.786 7.83489 247.571 7.79354 247.514 7.98393C247.346 8.0349 247.07 7.96086 247.053 8.19837C246.982 8.19837 246.841 8.19933 246.77 8.20029C246.773 8.2426 246.78 8.32819 246.783 8.3705C246.617 8.38107 246.45 8.39261 246.291 8.40511C246.295 8.4455 246.304 8.5282 246.308 8.56955C246.23 8.57147 246.075 8.57628 245.997 8.5782C246.001 8.62051 246.007 8.70417 246.011 8.74552C245.807 8.78591 245.509 8.70994 245.404 8.93207C245.248 8.97053 245.098 9.009 244.948 9.04746L244.972 9.1465C244.818 9.17824 244.666 9.21478 244.521 9.25517C244.42 9.40421 244.247 9.42248 244.087 9.43402C244.087 9.45999 244.088 9.51383 244.089 9.5398C243.934 9.57538 243.736 9.54172 243.672 9.72154C243.55 9.75327 243.427 9.78212 243.312 9.81097L243.328 9.91771C243.21 9.92828 243.094 9.93886 242.983 9.95136C242.915 10.2273 242.518 10.0668 242.426 10.3139C242.372 10.3148 242.265 10.3177 242.211 10.3187C242.18 10.3639 242.119 10.4533 242.088 10.4975C241.951 10.512 241.819 10.5264 241.689 10.5408C241.689 10.5764 241.688 10.6485 241.687 10.6841C241.614 10.6889 241.467 10.6976 241.393 10.7024C241.394 10.7428 241.396 10.8216 241.397 10.861C241.195 10.8803 240.998 10.9139 240.807 10.961L240.828 11.0572C240.536 11.1389 240.252 11.2553 240.013 11.4399C239.874 11.4938 239.7 11.4995 239.631 11.6495C239.568 11.6582 239.44 11.6736 239.375 11.6822C239.379 11.7197 239.385 11.7938 239.388 11.8313C239.202 11.8659 238.93 11.789 238.865 12.0217C238.7 12.0621 238.536 12.1034 238.378 12.1457C238.296 12.2919 238.132 12.313 237.988 12.3361C237.741 12.539 237.442 12.6621 237.139 12.7429C237.068 12.8313 236.978 12.8862 236.871 12.9092L236.894 12.9862C236.567 13.0362 236.305 13.2679 235.976 13.3045C235.91 13.4891 235.702 13.465 235.55 13.4997C235.551 13.5333 235.554 13.6016 235.555 13.6352C235.486 13.6458 235.351 13.6679 235.283 13.6785C235.162 13.8122 234.993 13.8564 234.825 13.8766C234.779 14.0391 234.6 14.0208 234.477 14.0603L234.496 14.1535C234.361 14.1872 234.228 14.2218 234.099 14.2564L234.113 14.3449C233.977 14.3747 233.797 14.3497 233.78 14.5295C233.638 14.5622 233.501 14.5959 233.367 14.6324C233.278 14.8142 233.059 14.7959 232.895 14.8401C232.847 15.0171 232.659 15.0055 232.519 15.043C232.472 15.1767 232.338 15.1949 232.224 15.2238C232.147 15.3853 231.969 15.3815 231.822 15.4094C231.78 15.5507 231.632 15.5671 231.519 15.6152C231.387 15.6834 231.25 15.744 231.118 15.8008L231.132 15.8902C231.055 15.896 230.901 15.9094 230.825 15.9152C230.826 15.9517 230.827 16.0229 230.828 16.0585C230.671 16.0902 230.476 16.0748 230.403 16.2489C230.256 16.2854 230.103 16.3152 230.019 16.4498C229.953 16.4566 229.822 16.47 229.757 16.4768C229.763 16.52 229.777 16.6066 229.784 16.6508C229.616 16.6633 229.45 16.6768 229.29 16.6902C229.291 16.7239 229.293 16.7912 229.294 16.8249C229.135 16.8499 228.986 16.8999 228.87 17.0114C228.753 17.0556 228.62 17.0787 228.578 17.2095C228.433 17.248 228.261 17.2412 228.19 17.3941C228.052 17.4489 227.903 17.4787 227.81 17.597C227.669 17.6393 227.52 17.6672 227.428 17.7884C227.297 17.8384 227.168 17.8903 227.059 17.9749C226.834 18.1067 226.61 18.2499 226.353 18.3096C226.32 18.475 226.149 18.4538 226.024 18.4817L226.036 18.5615C225.78 18.6596 225.541 18.7904 225.309 18.9298C225.204 18.9885 225.089 19.0327 225.021 19.1317C224.771 19.2173 224.508 19.3154 224.349 19.5366C224.233 19.5452 224.123 19.5529 224.015 19.5606C224.017 19.6029 224.022 19.6885 224.025 19.7308C223.867 19.7693 223.662 19.7452 223.591 19.9231C223.469 19.9587 223.352 19.9924 223.237 20.026L223.249 20.1029C223.123 20.1481 222.992 20.1847 222.912 20.2962C222.805 20.3356 222.702 20.3731 222.604 20.4145C222.28 20.6443 221.929 20.8501 221.563 21.0059C221.488 21.0828 221.405 21.1453 221.312 21.1934L221.316 21.2607C221.168 21.3021 220.944 21.2569 220.919 21.4549C220.69 21.5175 220.497 21.6559 220.293 21.7655C220.16 21.8386 220.034 21.9213 219.924 22.0213C219.789 22.0627 219.657 22.1031 219.528 22.1444C219.485 22.2733 219.366 22.3146 219.253 22.3502C219.148 22.4569 219.008 22.5127 218.868 22.5406C218.806 22.6137 218.741 22.681 218.671 22.7425C218.555 22.8262 218.42 22.8762 218.29 22.9214C218.215 23.0262 218.101 23.0704 217.988 23.1089C217.921 23.2618 217.743 23.256 217.613 23.3031C217.551 23.3964 217.466 23.4608 217.358 23.4945L217.378 23.5608C217.256 23.5983 217.138 23.6378 217.022 23.6753C216.899 23.7628 216.778 23.8512 216.662 23.9426C216.477 24.0253 216.302 24.1263 216.12 24.2061C216.12 24.2349 216.118 24.2926 216.118 24.3205C215.83 24.332 215.656 24.5648 215.405 24.658C215.258 24.8571 215.002 24.9205 214.823 25.0821C214.72 25.1407 214.588 25.1667 214.54 25.2859C214.419 25.3167 214.289 25.3321 214.256 25.4677C213.994 25.5283 213.778 25.6821 213.59 25.8648C213.352 25.9187 213.177 26.085 213.004 26.2427C212.886 26.2802 212.765 26.312 212.714 26.4351C212.576 26.4774 212.435 26.5187 212.341 26.6322C212.236 26.688 212.134 26.7437 212.04 26.8091C211.941 26.8755 211.845 26.9399 211.753 27.0062C211.648 27.0649 211.52 27.0976 211.467 27.213C211.344 27.2409 211.219 27.2611 211.189 27.3986C211.072 27.4419 210.945 27.4717 210.895 27.5976C210.755 27.6399 210.615 27.6832 210.522 27.7976C210.444 27.8361 210.37 27.8755 210.299 27.914C210.207 27.9928 210.108 28.0592 210.007 28.1169C209.884 28.1948 209.767 28.2804 209.658 28.3717C209.579 28.4121 209.503 28.4535 209.43 28.4958C209.316 28.5833 209.19 28.6496 209.058 28.6939C208.943 28.8217 208.803 28.9208 208.665 29.016C208.618 29.0275 208.522 29.0506 208.475 29.0621C208.442 29.2054 208.305 29.2295 208.191 29.266C208.067 29.442 207.866 29.5333 207.698 29.6554C207.547 29.7651 207.333 29.8026 207.253 29.9853C207.209 29.9891 207.123 29.9959 207.081 29.9987L207.095 30.1036C207.005 30.1382 206.916 30.1718 206.832 30.2064C206.717 30.3026 206.604 30.4007 206.481 30.4805C206.379 30.5411 206.282 30.6074 206.191 30.6776C206.117 30.718 206.044 30.7584 205.975 30.8007C205.882 30.8728 205.785 30.9373 205.689 30.9998C205.569 31.0853 205.45 31.1719 205.326 31.2459C205.247 31.2979 205.176 31.3594 205.116 31.4296C204.911 31.5354 204.68 31.6219 204.551 31.8229C204.439 31.8719 204.332 31.9248 204.262 32.0258C204.149 32.0652 204.018 32.0816 203.998 32.2181C203.877 32.2489 203.761 32.2893 203.682 32.3883C203.611 32.4508 203.543 32.5162 203.481 32.5854C203.355 32.6172 203.229 32.6489 203.202 32.7951C203.148 32.8056 203.042 32.8268 202.988 32.8374C202.951 32.9643 202.834 33.0076 202.726 33.0489C202.584 33.1412 202.43 33.2307 202.346 33.3816C202.301 33.3816 202.209 33.3816 202.164 33.3816C202.168 33.4249 202.176 33.5115 202.179 33.5557C202.021 33.5951 201.804 33.5595 201.759 33.7624C201.717 33.7682 201.633 33.7797 201.591 33.7865C201.597 33.8288 201.608 33.9144 201.614 33.9567C201.537 33.9615 201.385 33.9701 201.31 33.974C201.313 34.0182 201.32 34.1067 201.324 34.1509C201.249 34.1538 201.099 34.1615 201.024 34.1653C201.025 34.2086 201.026 34.2961 201.027 34.3394C200.967 34.3471 200.847 34.3615 200.788 34.3692C200.725 34.448 200.665 34.5269 200.607 34.6057C200.558 34.6144 200.459 34.6327 200.41 34.6413C200.276 34.8096 200.085 34.9106 199.915 35.0327C199.806 35.1606 199.644 35.1933 199.491 35.2173C199.493 35.2519 199.497 35.3202 199.499 35.3539C199.048 35.5587 198.699 35.9337 198.273 36.1828C198.176 36.2645 198.076 36.3443 198.017 36.4578C197.953 36.4636 197.825 36.4761 197.761 36.4828C197.763 36.5203 197.767 36.5962 197.769 36.6338C197.637 36.6636 197.476 36.6626 197.443 36.8232C197.329 36.8655 197.215 36.9059 197.151 37.0136C197.054 37.079 196.959 37.1434 196.868 37.2107C196.776 37.2771 196.689 37.3463 196.601 37.4107C190.814 41.535 185.082 45.7382 179.414 50.025C172.986 54.8791 166.589 59.7717 160.142 64.5989C157.401 66.6692 154.623 68.6876 151.862 70.7281C148.939 72.8513 146.014 74.9745 143.024 77.0045C139.909 79.1267 136.784 81.2365 133.572 83.2106C128.496 86.3772 123.2 89.2014 117.701 91.564C114.231 92.9785 110.679 94.2286 107.008 95.0075C104.688 95.4998 102.333 95.8133 99.9661 95.9412C97.5275 96.0614 95.0706 96.0172 92.658 95.6191C88.914 95.0594 85.2624 93.8584 81.9376 92.0439C78.7588 90.3053 75.8896 88.0177 73.4212 85.3704C72.4533 84.3424 71.5997 83.2174 70.6971 82.1346C69.8801 81.1566 69.1554 80.1018 68.2749 79.1777C66.9388 77.6651 65.5345 76.2083 64.011 74.8832C62.1674 73.1821 60.1949 71.6215 58.1351 70.1906C52.486 66.3221 46.2535 63.3488 39.7836 61.1352C39.2348 60.9775 38.707 60.7391 38.139 60.6583C37.9727 60.5102 37.7478 60.5083 37.5392 60.4929C37.5401 60.4669 37.5421 60.4131 37.543 60.3871C37.3325 60.3535 37.123 60.3227 36.9134 60.29C36.8913 60.2621 36.8461 60.2063 36.824 60.1785C36.3973 60.0708 35.982 59.9073 35.536 59.8977C35.535 59.863 35.5322 59.7929 35.5312 59.7582C35.3303 59.7486 35.1313 59.74 34.9314 59.7342C34.9343 59.7034 34.941 59.6419 34.9449 59.6111C34.7776 59.588 34.6123 59.5678 34.445 59.5486L34.4614 59.4467C34.2028 59.4159 33.9462 59.3746 33.6886 59.339L33.7039 59.238C33.4415 59.2063 33.1791 59.1745 32.9167 59.1544L32.933 59.0505C32.7033 59.0168 32.4745 58.9822 32.2448 58.9553L32.2669 58.8543C31.9478 58.8043 31.6277 58.7659 31.3057 58.7505C31.3057 58.7149 31.3038 58.6447 31.3038 58.6091C31.1077 58.5947 30.9135 58.5803 30.7184 58.5678L30.7309 58.4668C30.5416 58.437 30.3157 58.4659 30.1763 58.3082C29.8437 58.2639 29.5121 58.2158 29.1795 58.1774L29.1968 58.0822C28.9757 58.0572 28.7556 58.0302 28.5374 57.9918C28.225 57.735 27.729 57.9504 27.4291 57.6937C27.2129 57.6446 26.9908 57.6235 26.7698 57.612L26.7803 57.5119C26.492 57.4802 26.2036 57.4398 25.9152 57.4081L25.9229 57.3139C25.698 57.2975 25.475 57.2764 25.253 57.2417C24.9098 56.9946 24.4052 57.1898 24.0524 56.9456C23.7708 56.9004 23.4872 56.8667 23.2027 56.8475L23.2162 56.7494C22.7961 56.7484 22.3857 56.6465 21.9666 56.6446L21.9896 56.5436C21.6907 56.4946 21.3889 56.4609 21.0851 56.4667C21.088 56.4388 21.0948 56.3821 21.0976 56.3532C20.7737 56.3311 20.4517 56.2898 20.1268 56.2705L20.1403 56.1715C19.6587 56.1599 19.1829 56.0686 18.7004 56.0657L18.7225 55.9609C18.4149 55.9359 18.0852 55.9561 17.8065 55.8013C17.4566 55.7715 17.1086 55.7282 16.7587 55.7099L16.7501 55.6157C16.1436 55.6157 15.5457 55.4907 14.9401 55.4964L14.9565 55.3859C14.4364 55.3878 13.9232 55.2657 13.4022 55.3041C13.407 55.2743 13.4176 55.2166 13.4224 55.1878C12.9043 55.1714 12.39 55.0945 11.871 55.108L11.8863 54.9945C11.3981 55.007 10.9165 54.8983 10.4272 54.9262L10.4243 54.8281C9.85146 54.8329 9.28435 54.7272 8.71146 54.7483C8.70954 54.7185 8.70474 54.6589 8.70281 54.6291C7.70315 54.6695 6.71022 54.4973 5.71056 54.5425L5.71825 54.4252C4.83586 54.4464 3.95635 54.3416 3.07299 54.3579C2.88267 54.3454 2.6664 54.3887 2.50396 54.2598C1.79651 54.2502 1.08809 54.2242 0.38064 54.2329C0.250876 54.2156 0.0538279 54.2714 0 54.106C0.0672848 53.9223 0.281635 53.9848 0.433507 53.954L0.419088 53.8685C0.792039 53.8165 1.11789 53.6031 1.49565 53.5761L1.48603 53.4819C1.65328 53.4569 1.81957 53.429 1.98683 53.403L1.97145 53.3021C2.17042 53.2742 2.36939 53.2396 2.5674 53.205L2.55586 53.1107C2.97207 53.1126 3.31234 52.8328 3.7247 52.8136L3.69682 52.7117C3.86215 52.6992 4.02652 52.6847 4.19088 52.6732C4.18992 52.6376 4.18704 52.5674 4.18512 52.5328C4.41677 52.5203 4.6465 52.4876 4.87334 52.4386L4.85893 52.3424C5.11557 52.3068 5.37029 52.2616 5.62694 52.228L5.61348 52.1193C5.77881 52.101 5.9451 52.0799 6.11139 52.0626C6.11139 52.0347 6.11042 51.9799 6.11042 51.953C6.33823 51.9241 6.56508 51.8885 6.79289 51.8558L6.7727 51.7549C6.95725 51.7318 7.14277 51.7049 7.32347 51.6568C7.61088 51.4799 7.96653 51.4924 8.29045 51.4404L8.28469 51.3635C8.40964 51.3558 8.50096 51.2991 8.55863 51.1952C8.94119 51.1683 9.31703 51.0914 9.69863 51.0491C9.77456 50.8914 9.962 50.9164 10.1062 50.8769C10.3897 50.7154 10.729 50.7327 11.0386 50.6615C11.2375 50.4663 11.5317 50.5211 11.7845 50.5009L11.7624 50.3923C11.9652 50.3711 12.168 50.3471 12.3718 50.325L12.3573 50.2278C12.6659 50.1971 12.9735 50.1538 13.2801 50.1096C13.5127 49.8942 13.8809 49.9778 14.1731 49.9134L14.1654 49.8173C14.4259 49.7596 14.7469 49.8297 14.9545 49.6326C15.2727 49.549 15.6485 49.624 15.9302 49.4345C16.1166 49.4018 16.305 49.3797 16.4944 49.3643C16.4896 49.3364 16.4809 49.2807 16.4761 49.2528C16.778 49.2451 17.0769 49.2066 17.3758 49.1662L17.3489 49.0682C17.6008 49.0605 17.8555 49.0509 18.0987 48.9768C18.1871 48.8643 18.337 48.8893 18.461 48.8701C18.783 48.8432 19.1022 48.7893 19.4242 48.7624C19.6481 48.4854 20.0374 48.6835 20.3412 48.6547L20.345 48.7537C20.8179 48.7691 21.2841 48.871 21.759 48.8787C21.758 48.9066 21.757 48.9643 21.7561 48.9932C22.0175 49.0249 22.2809 49.048 22.5443 49.0576L22.5337 49.1595C22.7673 49.1807 23.0008 49.2095 23.2354 49.2364L23.2133 49.3345C23.5372 49.3509 23.8592 49.3951 24.1822 49.4355L24.1668 49.5403C24.4004 49.5451 24.633 49.5538 24.8666 49.5644C24.8656 49.5999 24.8646 49.6692 24.8646 49.7047C25.2751 49.7422 25.6826 49.8153 26.0959 49.8307L26.0815 49.9317C26.367 49.9788 26.6534 50.0192 26.9418 50.0403C26.9428 50.0673 26.9428 50.1221 26.9428 50.149C27.0831 50.1653 27.2244 50.1798 27.3657 50.1942L27.3522 50.2932C27.7041 50.3202 28.052 50.3769 28.4029 50.4134L28.3817 50.5154C28.6143 50.5413 28.846 50.5721 29.0786 50.5981L29.0632 50.701C29.3525 50.7423 29.6428 50.7808 29.935 50.8038C29.9321 50.8394 29.9273 50.9125 29.9244 50.949C30.184 50.9635 30.4435 50.9779 30.704 50.9894C30.7021 51.0279 30.6982 51.1048 30.6963 51.1443C30.8934 51.1539 31.0914 51.1654 31.2894 51.175L31.2644 51.2914C31.3451 51.2923 31.5076 51.2943 31.5883 51.2943C31.5873 51.3318 31.5864 51.4048 31.5854 51.4414C31.967 51.452 32.3381 51.5491 32.7177 51.575L32.7024 51.6827C32.9032 51.7193 33.107 51.7424 33.3118 51.7539L33.2897 51.8587C33.5155 51.8943 33.7424 51.9299 33.9702 51.9587L33.951 52.0635C34.0923 52.0837 34.2326 52.1058 34.3739 52.128L34.3643 52.2222C34.668 52.2587 34.9699 52.3087 35.2736 52.3491C35.3563 52.6116 35.6879 52.4886 35.8955 52.5338C35.8926 52.5722 35.8868 52.6482 35.884 52.6867C36.0503 52.6934 36.2185 52.703 36.3867 52.7097C36.3819 52.7405 36.3713 52.803 36.3665 52.8338C36.5933 52.8636 36.8211 52.8934 37.049 52.9194C37.047 52.954 37.0422 53.0232 37.0403 53.0578C37.2345 53.0732 37.4306 53.0905 37.6266 53.1059C37.6247 53.1396 37.6228 53.2078 37.6209 53.2425C37.7949 53.2655 37.9688 53.2934 38.1419 53.328C38.3947 53.4857 38.6849 53.5627 38.9666 53.6531C45.9546 56.0657 52.7975 59.064 58.9338 63.2258C63.6467 66.4154 67.9933 70.18 71.6622 74.5389C72.758 75.7669 73.6913 77.1256 74.7035 78.4199C75.8069 79.8056 76.8893 81.2192 78.1734 82.4452C80.8543 85.0146 84.0263 87.0762 87.4761 88.4532C91.0441 89.8418 94.887 90.5101 98.7145 90.4216C103.263 90.3918 107.752 89.4081 112.07 88.0321C115.967 86.7964 119.697 85.0973 123.349 83.2722C126.779 81.548 130.113 79.6393 133.403 77.6613C139.404 74.036 145.207 70.0964 150.936 66.0567C153.973 63.9008 157.032 61.7766 160.03 59.5669C172.127 50.8308 183.991 41.7658 196.368 33.4239C196.443 33.3672 196.521 33.3086 196.596 33.246C196.631 33.2134 196.703 33.147 196.74 33.1143C196.864 33.0816 197.019 33.073 197.043 32.9124C197.084 32.9076 197.167 32.8989 197.208 32.8941C197.207 32.8537 197.205 32.7729 197.204 32.7326C197.358 32.6931 197.581 32.7268 197.614 32.5143C197.658 32.5133 197.747 32.5114 197.792 32.5104C197.789 32.47 197.78 32.3902 197.776 32.3498C197.934 32.3133 198.095 32.2748 198.259 32.2373L198.246 32.1489C198.436 32.0431 198.649 31.945 198.774 31.7556C198.837 31.7469 198.964 31.7306 199.028 31.7229C199.026 31.6806 199.022 31.596 199.021 31.5546C199.075 31.5508 199.182 31.544 199.237 31.5402C199.231 31.5036 199.222 31.4306 199.217 31.3931C199.366 31.3613 199.517 31.319 199.666 31.269C199.774 31.17 199.886 31.0757 200 30.9815C200.116 30.9411 200.234 30.8988 200.355 30.8594C200.354 30.8219 200.352 30.7488 200.351 30.7122C200.424 30.7055 200.571 30.692 200.645 30.6853C200.642 30.6507 200.639 30.5805 200.636 30.5459C200.82 30.5161 200.97 30.4036 201.113 30.2872C201.334 30.1497 201.556 30.0122 201.769 29.8603C201.863 29.8026 201.985 29.7699 202.042 29.6593C202.24 29.5458 202.477 29.4506 202.606 29.2506C202.736 29.241 202.884 29.24 202.895 29.0679C203.008 29.0333 203.124 28.9996 203.244 28.9679C203.325 28.8727 203.406 28.7756 203.484 28.6756C203.548 28.6698 203.677 28.6592 203.741 28.6544C203.739 28.6121 203.737 28.5275 203.736 28.4852C203.799 28.4823 203.925 28.4785 203.988 28.4765C204.021 28.4352 204.087 28.3515 204.12 28.3092C204.358 28.2294 204.546 28.0496 204.79 27.9813L204.776 27.8842C204.829 27.8823 204.935 27.8784 204.988 27.8765C204.988 27.8361 204.989 27.7563 204.99 27.7159C205.061 27.7092 205.205 27.6976 205.276 27.6909C205.275 27.6515 205.271 27.5726 205.268 27.5342C205.41 27.487 205.647 27.5399 205.67 27.3361C205.794 27.3101 205.921 27.2707 205.98 27.1409C206.092 27.1034 206.212 27.0678 206.332 27.0332L206.321 26.9562C206.487 26.8168 206.749 26.7812 206.848 26.5726C206.986 26.536 207.185 26.5658 207.222 26.3802C207.559 26.236 207.867 26.0216 208.199 25.8581C208.295 25.7148 208.453 25.6812 208.62 25.6744C208.62 25.636 208.62 25.561 208.62 25.5235C208.672 25.5206 208.776 25.5138 208.828 25.511L208.819 25.4225C208.929 25.3706 209.038 25.309 209.141 25.2379C209.349 25.1167 209.553 24.9811 209.785 24.9032L209.774 24.8061C209.828 24.8071 209.936 24.808 209.991 24.808C209.987 24.7648 209.979 24.6782 209.975 24.6349C210.052 24.6321 210.205 24.6263 210.281 24.6234C210.28 24.5821 210.276 24.4984 210.274 24.4561C210.428 24.4186 210.678 24.4849 210.689 24.257C210.755 24.2513 210.888 24.2397 210.954 24.234C210.953 24.1945 210.95 24.1157 210.949 24.0772C211.095 24.0388 211.315 24.084 211.358 23.8887C211.809 23.6657 212.248 23.4185 212.691 23.1791L212.664 23.105C212.798 23.082 212.972 23.0916 212.986 22.9089C213.132 22.8685 213.363 22.9089 213.359 22.6916C213.406 22.6964 213.502 22.7041 213.55 22.7089C213.548 22.6666 213.544 22.5819 213.542 22.5406C213.7 22.5031 213.86 22.4627 214.023 22.4242L214.012 22.3406C214.184 22.2117 214.427 22.1569 214.539 21.9579C214.67 21.9136 214.874 21.9463 214.907 21.7646C215.238 21.6328 215.531 21.4136 215.857 21.2636L215.84 21.1655C215.893 21.1636 216 21.1607 216.053 21.1588C216.05 21.1193 216.043 21.0405 216.04 21.0011C216.194 20.9665 216.429 21.0184 216.455 20.8001C216.596 20.7664 216.794 20.7943 216.841 20.6116C216.976 20.5751 217.111 20.5212 217.223 20.4289C217.33 20.378 217.45 20.3366 217.525 20.2318C217.622 20.1904 217.72 20.151 217.824 20.1106C218.013 19.9135 218.338 19.8875 218.477 19.6395C218.542 19.6337 218.672 19.6241 218.736 19.6193C218.734 19.576 218.73 19.4904 218.728 19.4471C218.804 19.4433 218.954 19.4346 219.029 19.4298C219.027 19.3885 219.022 19.3058 219.019 19.2644C219.194 19.2202 219.493 19.3125 219.514 19.0577C219.638 19.0385 219.789 19.0452 219.826 18.8846C219.991 18.8461 220.169 18.8173 220.295 18.6875C220.491 18.5663 220.695 18.4557 220.915 18.3788C220.973 18.2096 221.178 18.2471 221.319 18.1971C221.319 18.1749 221.317 18.1307 221.316 18.1086C221.432 18.0586 221.586 18.048 221.655 17.9182C221.768 17.8807 221.879 17.8461 221.999 17.8124L221.994 17.7249C222.109 17.6826 222.293 17.6999 222.316 17.5297C222.463 17.4922 222.614 17.4557 222.768 17.423L222.749 17.3191C222.909 17.2778 223.069 17.2393 223.235 17.2066C223.234 17.172 223.231 17.1018 223.229 17.0662C223.341 17.0528 223.457 17.0383 223.577 17.0229C223.613 16.9027 223.697 16.8402 223.83 16.8374L223.806 16.7527C223.943 16.7229 224.083 16.6931 224.226 16.6633L224.192 16.57C224.352 16.5556 224.497 16.4893 224.611 16.3719C224.679 16.3614 224.816 16.3383 224.884 16.3277C224.883 16.2912 224.88 16.22 224.879 16.1844C225.03 16.1479 225.275 16.2114 225.293 15.9912C225.427 15.9488 225.645 15.9979 225.693 15.8113C225.832 15.7729 226.02 15.7873 226.079 15.6152C226.217 15.5738 226.43 15.6094 226.452 15.4132C226.566 15.3978 226.685 15.3825 226.807 15.369C226.806 15.3325 226.804 15.2613 226.803 15.2257C226.946 15.1767 227.193 15.2382 227.214 15.0286C227.391 15.0122 227.581 14.9969 227.704 14.844C227.818 14.8074 227.954 14.7882 228.001 14.6516C228.175 14.6093 228.355 14.5689 228.537 14.5343L228.517 14.442C228.662 14.4055 228.806 14.3661 228.957 14.3266C229.034 14.1574 229.227 14.168 229.385 14.1314L229.375 14.0641C229.601 13.9112 229.853 13.8151 230.121 13.7583C230.194 13.6054 230.379 13.6199 230.518 13.5641C230.78 13.3795 231.124 13.3266 231.364 13.1112C231.489 13.0477 231.712 13.0871 231.742 12.9025C231.857 12.8919 231.975 12.8823 232.098 12.8727C232.095 12.8333 232.088 12.7544 232.085 12.714C232.214 12.7044 232.347 12.6938 232.483 12.6842C232.481 12.6448 232.477 12.5669 232.474 12.5275C232.635 12.514 232.794 12.4986 232.961 12.4842C232.957 12.4438 232.95 12.364 232.946 12.3236C233.077 12.3169 233.211 12.3111 233.349 12.3054C233.347 12.2659 233.343 12.188 233.341 12.1496C233.723 12.1476 234.038 11.9419 234.385 11.8274L234.378 11.7486C234.661 11.6543 234.981 11.588 235.205 11.3745C235.336 11.3264 235.526 11.3505 235.598 11.1937C235.781 11.1611 235.962 11.1005 236.12 10.9928C236.244 10.9524 236.424 10.9591 236.43 10.7793C236.585 10.7735 236.738 10.7687 236.9 10.7639C236.897 10.7245 236.891 10.6456 236.887 10.6072C237.053 10.5783 237.222 10.5456 237.393 10.5129L237.367 10.41C237.682 10.411 237.932 10.1918 238.24 10.1543C238.242 10.1254 238.246 10.0677 238.248 10.0389C238.397 9.99752 238.612 10.0331 238.673 9.84655C238.818 9.82732 238.962 9.80905 239.116 9.7927C239.113 9.75712 239.106 9.685 239.103 9.64846C239.489 9.65327 239.817 9.45902 240.167 9.3369L240.16 9.25805C240.302 9.21093 240.549 9.2744 240.58 9.06189C240.726 9.04458 240.872 9.02823 241.028 9.01188C241.025 8.9763 241.02 8.90611 241.017 8.87053C241.201 8.8436 241.456 8.89745 241.548 8.68109C241.699 8.64936 241.855 8.61763 242.013 8.58878L241.982 8.48685C242.196 8.46569 242.43 8.458 242.595 8.29357C242.72 8.23203 242.942 8.28107 242.989 8.10413C243.15 8.05798 243.414 8.14068 243.466 7.91951C243.634 7.88585 243.804 7.85027 243.976 7.81181C244.04 7.63488 244.256 7.707 244.398 7.65507C244.398 7.62526 244.399 7.56564 244.4 7.53487C244.619 7.49737 244.84 7.45409 245.064 7.41659L245.044 7.31851C245.196 7.28966 245.348 7.25697 245.506 7.22331C245.622 7.10696 245.775 7.05503 245.94 7.03484L245.927 6.95118C246.165 6.90406 246.407 6.85887 246.652 6.82521C246.686 6.60693 246.929 6.68578 247.089 6.65597L247.066 6.54731C247.295 6.46365 247.647 6.55308 247.78 6.30018C247.913 6.28479 248.054 6.27133 248.196 6.25787C248.21 6.02709 248.465 6.10882 248.625 6.07613L248.601 5.96362C248.791 5.92996 248.985 5.89727 249.182 5.86842L249.172 5.76649C249.337 5.73764 249.504 5.70976 249.676 5.68476L249.657 5.5809C249.823 5.55494 249.992 5.52705 250.165 5.50398C250.165 5.47609 250.167 5.42128 250.167 5.39435C250.326 5.36935 250.491 5.34243 250.656 5.31743L250.64 5.21357C250.8 5.19723 250.958 5.18088 251.126 5.16453C251.126 5.13088 251.127 5.06549 251.127 5.03279C251.344 5.00298 251.563 4.97029 251.785 4.93663C251.786 4.90875 251.789 4.85394 251.79 4.82605C251.981 4.79432 252.175 4.7597 252.371 4.72797L252.357 4.63662C252.528 4.60873 252.7 4.57796 252.876 4.54815L252.841 4.44622C253.081 4.41449 253.323 4.37698 253.566 4.33179C253.677 4.0962 253.969 4.17601 254.181 4.13851L254.178 4.04235C254.328 4.00869 254.48 3.97408 254.635 3.93753C254.813 3.80291 255.043 3.79618 255.26 3.76733L255.238 3.67021C255.463 3.63463 255.689 3.59809 255.919 3.5654L255.902 3.46443C256.065 3.44231 256.228 3.41731 256.398 3.39519C256.398 3.36635 256.398 3.31057 256.399 3.28269C256.594 3.25576 256.792 3.22499 256.992 3.19518L256.97 3.09421C257.416 3.11441 257.799 2.84324 258.239 2.82593C258.239 2.79997 258.241 2.749 258.242 2.72304Z" fill="#FFBC00"/>
<path d="M213.398 3.96158C213.59 3.79041 213.88 3.38462 214.141 3.71348C213.952 3.82984 213.758 3.926 213.556 4.00196C213.543 4.17601 213.369 4.17217 213.241 4.19621C213.242 4.23659 213.245 4.3164 213.247 4.35583C213.17 4.35679 213.017 4.35679 212.94 4.35679C212.945 4.39814 212.956 4.47988 212.961 4.52122C212.831 4.5568 212.681 4.56161 212.624 4.70201C212.518 4.76066 212.419 4.81932 212.329 4.89144C212.223 4.94817 212.114 4.99914 212.05 5.10299C211.965 5.14146 211.883 5.17992 211.803 5.21838C211.511 5.44436 211.178 5.61168 210.904 5.85977C210.8 5.91939 210.701 5.98093 210.608 6.04728C210.406 6.16075 210.212 6.28576 210.041 6.43961C209.858 6.53385 209.685 6.64155 209.522 6.76175C209.405 6.84925 209.288 6.93483 209.173 7.01849C209.079 7.08003 208.991 7.14158 208.904 7.20504C208.727 7.33678 208.546 7.46371 208.337 7.53102L208.347 7.59641C208.054 7.74354 207.808 7.96567 207.521 8.11856C207.431 8.21472 207.308 8.25991 207.194 8.30415L207.192 8.35896C207.084 8.39838 207.006 8.46762 206.955 8.5657C206.907 8.57532 206.811 8.59455 206.762 8.60417C206.634 8.7186 206.508 8.83495 206.386 8.95323C206.265 8.99073 206.145 9.02823 206.03 9.06573C206.032 9.10804 206.037 9.19459 206.04 9.23786C205.976 9.24074 205.849 9.24651 205.786 9.25036C205.709 9.34748 205.63 9.43979 205.548 9.52922C205.431 9.57345 205.321 9.62634 205.228 9.70616C205.133 9.77347 205.04 9.83789 204.948 9.89944C204.652 10.085 204.368 10.2879 204.082 10.486C204.001 10.5274 203.923 10.5697 203.848 10.612C203.755 10.6783 203.663 10.7456 203.577 10.8139C203.486 10.8947 203.394 10.9745 203.308 11.0543C203.091 11.1447 202.906 11.288 202.734 11.4428C202.627 11.4947 202.524 11.5486 202.445 11.6332C202.354 11.6995 202.267 11.7659 202.182 11.8332C202.096 11.8697 202.012 11.9063 201.932 11.9428C201.841 12.0871 201.674 12.1188 201.525 12.1534C201.526 12.1938 201.529 12.2755 201.531 12.3159C201.48 12.3169 201.378 12.3179 201.327 12.3188C201.328 12.365 201.328 12.4554 201.328 12.5015C201.263 12.5044 201.134 12.5121 201.069 12.5159C201.053 12.6929 200.883 12.6929 200.75 12.7246C200.751 12.7621 200.754 12.8352 200.756 12.8717C200.682 12.8794 200.535 12.8958 200.461 12.9035C200.463 12.9448 200.466 13.0275 200.467 13.0698C200.406 13.0785 200.286 13.0977 200.226 13.1073C200.088 13.3054 199.875 13.4227 199.685 13.5593C199.629 13.5833 199.518 13.6304 199.461 13.6545C199.377 13.7622 199.278 13.8554 199.175 13.941C199.018 13.9968 198.881 14.0862 198.768 14.2035C198.72 14.218 198.624 14.2468 198.576 14.2612C198.544 14.3978 198.411 14.4237 198.302 14.4641C198.24 14.5391 198.176 14.6074 198.107 14.6709C197.95 14.7805 197.705 14.7949 197.642 15.0017C197.602 15.0036 197.521 15.0074 197.481 15.0094L197.487 15.0969C197.295 15.1978 197.125 15.3296 196.965 15.4709C196.864 15.5363 196.766 15.6017 196.67 15.6671C196.565 15.7286 196.465 15.7902 196.372 15.8623C196.305 15.9229 196.241 15.9844 196.18 16.046C196.062 16.0873 195.935 16.119 195.899 16.2556C195.853 16.2671 195.758 16.2892 195.712 16.2998C195.442 16.5575 195.106 16.7258 194.82 16.9604C194.713 17.0528 194.582 17.1085 194.455 17.1595C194.281 17.4259 193.944 17.5037 193.772 17.7711C193.652 17.8105 193.526 17.8432 193.49 17.9807C193.444 17.9932 193.352 18.0192 193.305 18.0326C193.212 18.1384 193.089 18.2096 192.957 18.2423C192.957 18.2721 192.956 18.3317 192.956 18.3615C192.707 18.4096 192.497 18.55 192.339 18.7423C192.225 18.7856 192.113 18.8327 192.052 18.9423C191.967 18.9846 191.886 19.026 191.806 19.0673C191.775 19.1029 191.715 19.1731 191.685 19.2087C191.539 19.2827 191.401 19.3683 191.272 19.4625C191.101 19.626 190.909 19.7664 190.686 19.8433C190.671 20.0001 190.536 20.0202 190.411 20.0385C190.205 20.2885 189.93 20.4703 189.645 20.6164C189.566 20.7097 189.458 20.7616 189.356 20.8145C189.22 20.9213 189.071 21.0136 188.974 21.1578C188.924 21.1617 188.825 21.1694 188.775 21.1732C188.745 21.3396 188.586 21.3588 188.46 21.4011C188.458 21.4386 188.454 21.5126 188.452 21.5501C188.412 21.5521 188.333 21.5569 188.293 21.5588C188.267 21.7078 188.134 21.7377 188.012 21.7675C187.893 21.9454 187.692 22.0367 187.523 22.155C187.431 22.2271 187.332 22.2877 187.237 22.3473C187.155 22.454 187.026 22.4954 186.909 22.5387C186.83 22.6214 186.753 22.7041 186.679 22.7887C186.482 22.8743 186.271 22.9723 186.193 23.1887C186.129 23.1926 186.001 23.2022 185.937 23.206C185.939 23.2464 185.943 23.3253 185.945 23.3647C185.675 23.382 185.541 23.656 185.279 23.6926C185.278 23.731 185.277 23.807 185.276 23.8455C185.206 23.8512 185.065 23.8618 184.995 23.8676C184.993 23.9089 184.989 23.9907 184.986 24.032C184.935 24.0339 184.833 24.0378 184.782 24.0397L184.805 24.1686C184.76 24.1715 184.673 24.1753 184.629 24.1782C184.594 24.2984 184.514 24.3676 184.388 24.384C184.39 24.4205 184.394 24.4936 184.396 24.5292C184.324 24.533 184.181 24.5398 184.109 24.5426C184.107 24.5811 184.102 24.6599 184.099 24.6984C183.896 24.7244 183.766 24.8811 183.602 24.9782C183.328 25.1609 183.045 25.3331 182.809 25.5619C182.767 25.5754 182.683 25.6023 182.641 25.6167C182.59 25.6667 182.488 25.7677 182.436 25.8177C176.623 30.0468 170.947 34.4605 165.205 38.7858C156.177 45.6535 147.131 52.5049 137.821 58.9899C131.801 63.2296 125.596 67.2395 119.021 70.5724C115.847 72.1455 112.585 73.562 109.196 74.6024C106.919 75.3005 104.571 75.7784 102.196 75.9535C100.237 76.0448 98.2522 76.0448 96.3307 75.6082C94.2353 75.1678 92.2004 74.3697 90.425 73.1639C87.5251 71.2782 85.3719 68.5184 83.2073 65.874C81.603 63.8998 79.8258 62.0747 77.9889 60.3179C76.1059 58.5707 74.1911 56.8485 72.1303 55.3109C69.5254 53.2963 66.8215 51.4077 64.0109 49.6894C60.9024 47.8162 57.6621 46.1113 54.1998 44.9881C53.5597 44.7669 52.8907 44.6381 52.2582 44.3958C56.2665 44.1381 60.2843 43.9371 64.3022 44.0669C64.6223 44.0621 64.8885 44.2583 65.1519 44.414C70.9413 47.8075 76.2962 51.9443 81.0388 56.6946C83.7734 59.4775 86.3514 62.4084 88.9304 65.3345C90.0415 66.5298 91.0767 67.8078 92.3484 68.8424C93.6989 69.9694 95.2657 70.8541 96.9622 71.3378C99.2172 71.9888 101.599 71.8936 103.906 71.6282C107.992 71.1157 111.917 69.7435 115.667 68.0828C122.661 64.9624 129.233 60.9872 135.623 56.7869C137.045 55.8388 138.46 54.881 139.883 53.9367C142.933 51.8347 145.963 49.7047 148.986 47.5642C155.009 43.2438 161.024 38.9108 167.02 34.5519C171.053 31.6306 175.102 28.7285 179.165 25.8485L179.044 25.8254L178.983 25.8139C179.143 25.7591 179.411 25.836 179.452 25.6023C179.497 25.5985 179.583 25.5898 179.626 25.586C179.622 25.5465 179.611 25.4687 179.605 25.4302C179.821 25.4187 180.012 25.3283 180.139 25.1484C180.197 25.1379 180.314 25.1177 180.372 25.1071C180.369 25.0667 180.364 24.9859 180.361 24.9455C180.425 24.9379 180.553 24.9205 180.617 24.9119C180.637 24.76 180.775 24.735 180.904 24.7003C180.956 24.6167 181.011 24.533 181.066 24.4484C181.171 24.4099 181.278 24.3695 181.387 24.3292C181.427 24.1965 181.552 24.1657 181.67 24.1263C181.796 23.9541 182.018 23.8964 182.167 23.7445C182.263 23.682 182.362 23.6205 182.463 23.558C182.549 23.4724 182.649 23.4012 182.766 23.3589L182.772 23.2983C182.894 23.282 182.971 23.2137 183.002 23.0945C183.066 23.0877 183.191 23.0743 183.253 23.0675C183.254 23.032 183.256 22.9589 183.257 22.9233C183.374 22.8714 183.553 22.881 183.59 22.7185C183.632 22.7127 183.715 22.7002 183.757 22.6935C183.751 22.6531 183.738 22.5723 183.731 22.531C183.894 22.5146 184.114 22.5185 184.152 22.306C184.195 22.3098 184.283 22.3156 184.326 22.3185C184.325 22.2771 184.323 22.1925 184.321 22.1511C184.465 22.1098 184.61 22.0665 184.759 22.0232C184.773 21.8771 184.901 21.8502 185.024 21.8155C185.088 21.7482 185.154 21.6819 185.226 21.6175C185.374 21.5463 185.517 21.454 185.619 21.3194C185.672 21.303 185.779 21.2713 185.833 21.2549C185.918 21.1857 186.004 21.1165 186.096 21.0492C186.224 20.9405 186.354 20.8328 186.487 20.7261C186.532 20.7136 186.623 20.6895 186.668 20.678C186.711 20.5462 186.834 20.5135 186.953 20.4751C187.014 20.4058 187.082 20.3405 187.154 20.2789C187.251 20.1962 187.37 20.1481 187.493 20.1058L187.482 20.0337C187.646 19.9731 187.812 19.9029 187.929 19.7645C187.974 19.752 188.064 19.7279 188.108 19.7164C188.154 19.6308 188.22 19.5616 188.303 19.5087C188.399 19.4452 188.498 19.3827 188.601 19.3231C188.726 19.2423 188.843 19.1481 188.959 19.051C189.001 19.0442 189.086 19.0308 189.128 19.024C189.127 18.9885 189.124 18.9173 189.122 18.8817C189.271 18.849 189.423 18.8029 189.536 18.6875C189.601 18.6394 189.668 18.5923 189.739 18.5442C189.826 18.449 189.945 18.399 190.066 18.3538L190.059 18.2663C190.114 18.2615 190.226 18.2519 190.281 18.2471C190.278 18.2057 190.272 18.123 190.269 18.0807C190.325 18.0865 190.436 18.0961 190.492 18.1019C190.488 18.0557 190.48 17.9624 190.477 17.9163C190.551 17.9086 190.699 17.8932 190.773 17.8845C190.771 17.8442 190.768 17.7634 190.766 17.723C190.842 17.7172 190.994 17.7047 191.07 17.6989C191.066 17.6605 191.057 17.5826 191.052 17.5432C191.232 17.5162 191.422 17.4807 191.545 17.3287C191.615 17.2903 191.688 17.2518 191.763 17.2133C191.817 17.0893 191.941 17.0604 192.059 17.022C192.177 16.9268 192.296 16.8326 192.419 16.7402C192.462 16.7354 192.547 16.7277 192.589 16.7239C192.586 16.6816 192.578 16.5989 192.574 16.5566C192.633 16.5489 192.75 16.5335 192.809 16.5258C192.936 16.3796 193.108 16.2844 193.278 16.1892C193.373 16.1267 193.472 16.0652 193.571 16.0017C193.752 15.8411 193.958 15.7094 194.2 15.6613C194.201 15.6257 194.202 15.5536 194.202 15.518C194.243 15.5132 194.323 15.5036 194.364 15.4988C194.473 15.394 194.592 15.294 194.717 15.2026C194.82 15.1719 194.928 15.1373 195.037 15.1007C195.084 14.9767 195.204 14.9401 195.32 14.8978C195.459 14.7392 195.64 14.6257 195.824 14.5228C195.941 14.4401 196.058 14.3574 196.18 14.2757C196.279 14.2112 196.399 14.1632 196.467 14.0555C196.512 14.0478 196.603 14.0314 196.649 14.0228C196.774 13.9054 196.922 13.8131 197.053 13.6987C197.164 13.6545 197.294 13.6199 197.323 13.4804C197.368 13.4804 197.457 13.4785 197.501 13.4775C197.499 13.4352 197.494 13.3506 197.493 13.3083C197.673 13.2689 197.967 13.3391 197.988 13.0737C198.022 13.0756 198.092 13.0794 198.127 13.0814C198.156 12.8746 198.408 12.9015 198.501 12.74C198.63 12.6919 198.792 12.6765 198.868 12.5381C199.145 12.4169 199.392 12.2448 199.647 12.0813C199.763 12.0486 199.891 12.0159 199.912 11.8697C199.976 11.863 200.105 11.8476 200.169 11.8399C200.169 11.7986 200.169 11.714 200.169 11.6717C200.232 11.6659 200.36 11.6544 200.424 11.6486C200.443 11.4822 200.605 11.4774 200.739 11.4418L200.739 11.3764C200.951 11.262 201.155 11.1341 201.352 10.9937C201.519 10.8783 201.69 10.7649 201.877 10.6754C201.994 10.5937 202.11 10.5072 202.226 10.4158C202.57 10.2735 202.862 10.0369 203.176 9.83982C203.521 9.68692 203.833 9.47056 204.15 9.26574C204.233 9.20036 204.323 9.13593 204.412 9.07054C204.521 9.02919 204.633 8.9888 204.749 8.94746C204.886 8.78879 205.067 8.67532 205.272 8.62051C205.272 8.58974 205.27 8.52916 205.27 8.49935C205.78 8.40223 206.159 8.00701 206.622 7.79739L206.62 7.72815C206.745 7.69353 206.876 7.65411 206.953 7.53487C207.088 7.48679 207.23 7.44159 207.374 7.39928V7.34736C207.457 7.28678 207.54 7.22331 207.623 7.156C207.725 7.10888 207.829 7.06369 207.94 7.01945C208.099 6.9156 208.255 6.80598 208.407 6.68674C208.455 6.67905 208.552 6.66462 208.601 6.65789C208.685 6.53481 208.81 6.45115 208.933 6.36653C208.987 6.35307 209.094 6.32614 209.148 6.31268C209.271 6.20883 209.409 6.12517 209.557 6.05401C209.685 5.98189 209.804 5.8915 209.913 5.78861C210.047 5.75015 210.183 5.71361 210.324 5.6761C210.442 5.46551 210.701 5.40974 210.894 5.28377C211 5.18473 211.141 5.14242 211.279 5.09338C211.332 4.96933 211.46 4.94144 211.577 4.89529C211.795 4.75585 212.066 4.67412 212.224 4.45488C212.35 4.39333 212.541 4.40679 212.609 4.25294C212.74 4.20678 212.907 4.20294 212.999 4.07504C213.045 4.04716 213.137 3.99042 213.183 3.96254C213.237 3.96254 213.344 3.96158 213.398 3.96158Z" fill="#FFBC00"/>
</svg>
