<svg width="56" height="65" viewBox="0 0 56 65" fill="none" xmlns="http://www.w3.org/2000/svg">
<path d="M33.8247 18.8554L27.0482 16.1642C26.6924 16.0229 26.2894 16.1968 26.148 16.5527L24.4362 20.8632C24.2948 21.2191 24.4687 21.6221 24.8246 21.7634L31.601 24.4546C31.9569 24.5959 32.3599 24.422 32.5012 24.0662L34.2131 19.7556C34.3545 19.3998 34.1806 18.9967 33.8247 18.8554Z" fill="white"/>
<path d="M31.8586 24.7565C31.739 24.7563 31.6206 24.7337 31.5094 24.6897L24.735 21.9962C24.6193 21.9504 24.5137 21.8821 24.4244 21.7954C24.335 21.7087 24.2637 21.6053 24.2144 21.4909C24.1651 21.3766 24.1388 21.2537 24.1371 21.1292C24.1354 21.0047 24.1583 20.8811 24.2044 20.7655L25.9162 16.4544C26.0091 16.2211 26.1908 16.0342 26.4214 15.9348C26.652 15.8353 26.9126 15.8313 27.1461 15.9237L33.923 18.6146C34.1562 18.7076 34.3431 18.8893 34.4426 19.1199C34.5421 19.3504 34.546 19.611 34.4536 19.8445L32.7419 24.1556C32.6719 24.3322 32.5506 24.4837 32.3936 24.5905C32.2365 24.6973 32.0511 24.7546 31.8612 24.7547L31.8586 24.7565ZM31.6968 24.2164C31.7502 24.2379 31.8074 24.2487 31.865 24.2479C31.9226 24.2472 31.9795 24.235 32.0323 24.2121C32.1393 24.1658 32.2237 24.0791 32.2668 23.9708L33.9786 19.6597C33.9999 19.606 34.0103 19.5488 34.0095 19.4911C34.0086 19.4334 33.9963 19.3765 33.9734 19.3236C33.9506 19.2707 33.9175 19.2227 33.8761 19.1826C33.8346 19.1425 33.7857 19.1109 33.7321 19.0896L26.9603 16.3987C26.8521 16.356 26.7313 16.358 26.6244 16.4042C26.5176 16.4504 26.4334 16.5371 26.3903 16.6452L24.6786 20.9563C24.6568 21.0097 24.646 21.0669 24.6469 21.1246C24.6478 21.1823 24.6603 21.2391 24.6837 21.2918C24.7063 21.3449 24.7392 21.3929 24.7805 21.4332C24.8218 21.4734 24.8706 21.5051 24.9242 21.5263L31.6968 24.2164Z" fill="#444445"/>
<path d="M36.0842 45.5484C36.0842 45.5484 28.7912 31.0317 29.1943 31.03C30.0425 31.03 36.0842 31.03 36.0842 31.03V45.5484Z" fill="#C9252C"/>
<path d="M36.0841 46.0568C35.9898 46.0569 35.8974 46.0307 35.8172 45.9813C35.7369 45.9319 35.672 45.8611 35.6296 45.7769C35.6116 45.7418 33.8323 42.1925 32.0965 38.6465C31.078 36.5625 30.2743 34.8858 29.7094 33.6644C29.3722 32.9352 29.1163 32.3601 28.9486 31.9527C28.6721 31.2859 28.59 31.0292 28.75 30.769C28.7958 30.6927 28.8607 30.6296 28.9383 30.5859C29.0159 30.5423 29.1035 30.5195 29.1925 30.5199C30.0313 30.5199 36.0242 30.5199 36.0841 30.5199C36.2189 30.5199 36.3482 30.5735 36.4436 30.6688C36.5389 30.7642 36.5925 30.8935 36.5925 31.0283V45.5484C36.5925 45.6832 36.5389 45.8126 36.4436 45.9079C36.3482 46.0032 36.2189 46.0568 36.0841 46.0568ZM29.8704 31.5376C30.615 33.3409 33.3658 38.9666 35.574 43.3959V31.5384C34.3663 31.5376 31.3117 31.5358 29.8704 31.5376Z" fill="#444445"/>
<path d="M8.68737 5.38517L7.45746 7.69606C7.30674 7.97869 7.27222 8.30898 7.36125 8.61667C7.45028 8.92435 7.65583 9.18517 7.93419 9.34365L10.5523 10.8363L8.68737 5.38517Z" fill="#C9252C"/>
<path d="M11.0101 11.3909L7.8082 9.5653C7.47105 9.37546 7.22184 9.06093 7.11413 8.68931C7.00642 8.31768 7.04881 7.91863 7.23219 7.57793L8.73855 4.74837L11.0101 11.3909ZM8.6367 6.02193L7.68153 7.81929C7.56088 8.04328 7.53292 8.30566 7.60366 8.55005C7.6744 8.79443 7.83819 9.00131 8.05983 9.12623L10.0934 10.286L8.6367 6.02193Z" fill="#444445"/>
<path d="M14.444 31.03H14.3387H9.97627V57.9014H13.4794V39.7019H15.5019V57.9014H18.8073V31.03H14.444Z" fill="#263238"/>
<path d="M19.0614 58.1557H15.2476V39.9561H13.7335V58.1557H9.72114V30.7759H19.0614V58.1557ZM15.756 57.6473H18.5522V31.286H10.2295V57.6473H13.2251V39.4477H15.756V57.6473Z" fill="#464647"/>
<path d="M7.8116 57.7611H13.6256C13.6872 57.7611 13.7461 57.7855 13.7896 57.829C13.8331 57.8725 13.8576 57.9315 13.8576 57.993V59.6192C13.8576 59.6807 13.8331 59.7397 13.7896 59.7832C13.7461 59.8267 13.6872 59.8512 13.6256 59.8512H6.26501C6.2035 59.8512 6.1445 59.8267 6.101 59.7832C6.05751 59.7397 6.03307 59.6807 6.03307 59.6192V59.5448C6.03284 59.0725 6.21998 58.6195 6.55343 58.2851C6.88687 57.9507 7.33936 57.7622 7.8116 57.7611Z" fill="#7F8081"/>
<path d="M13.6257 60.1046H6.26504C6.13617 60.1043 6.01265 60.053 5.92153 59.9619C5.83041 59.8708 5.77912 59.7473 5.77889 59.6184V59.544C5.77957 59.0039 5.9944 58.4862 6.37627 58.1043C6.75813 57.7225 7.27586 57.5076 7.8159 57.507H13.6257C13.7545 57.5072 13.878 57.5585 13.9692 57.6496C14.0603 57.7407 14.1116 57.8642 14.1118 57.9931V59.6193C14.1113 59.748 14.06 59.8713 13.9689 59.9622C13.8778 60.0532 13.7544 60.1043 13.6257 60.1046ZM6.28301 59.5962H13.6034V58.0154H7.81162C7.40635 58.0158 7.0178 58.177 6.73123 58.4636C6.44466 58.7501 6.28346 59.1387 6.28301 59.544V59.5962Z" fill="#444445"/>
<path d="M23.1706 59.8503H15.5241C15.4614 59.8503 15.4013 59.8254 15.357 59.7811C15.3127 59.7368 15.2879 59.6767 15.2879 59.614V57.9973C15.2879 57.9346 15.3127 57.8745 15.357 57.8302C15.4013 57.7859 15.4614 57.761 15.5241 57.761H21.5915C21.8299 57.761 22.0659 57.808 22.2862 57.8992C22.5064 57.9905 22.7065 58.1242 22.8751 58.2927C23.0437 58.4613 23.1774 58.6614 23.2686 58.8817C23.3598 59.1019 23.4068 59.338 23.4068 59.5764V59.614C23.4068 59.6767 23.3819 59.7368 23.3376 59.7811C23.2933 59.8254 23.2332 59.8503 23.1706 59.8503Z" fill="#7F8081"/>
<path d="M23.1714 60.1046H15.5249C15.3947 60.1046 15.2699 60.0529 15.1778 59.961C15.0857 59.869 15.0338 59.7443 15.0336 59.6141V57.9974C15.0338 57.8672 15.0857 57.7425 15.1778 57.6505C15.2699 57.5586 15.3947 57.507 15.5249 57.507H21.5914C22.1402 57.5074 22.6664 57.7256 23.0546 58.1136C23.4427 58.5015 23.6611 59.0277 23.6618 59.5765V59.6141C23.6616 59.7441 23.6098 59.8688 23.5179 59.9607C23.426 60.0526 23.3014 60.1043 23.1714 60.1046ZM15.5428 59.5962H23.1534V59.5765C23.1527 59.1625 22.9879 58.7657 22.6951 58.473C22.4023 58.1804 22.0054 58.0158 21.5914 58.0154H15.5428V59.5962Z" fill="#444445"/>
<path opacity="0.49" d="M18.8381 33.1767H9.99427V35.6348H18.8381V33.1767Z" fill="#424243"/>
<path d="M21.5281 22.1289L20.9222 20.7296C20.3924 19.2746 19.0735 17.9582 17.1845 17.2855C16.9543 17.2273 16.1147 17.1794 15.8878 17.1383V16.6821H12.5978V17.1434C12.1656 17.2179 11.3029 17.2855 11.3029 17.2855L11.278 17.294C9.32063 17.9736 7.79972 19.3293 7.24938 20.7792C7.24938 20.7792 7.01145 21.7626 6.34899 24.1078L9.79222 25.2606V33.2272H16.861L19.0272 33.2332V25.2367L21.9638 23.2365L21.5281 22.1289Z" fill="#C9252C"/>
<path d="M19.0272 33.4874L16.861 33.4814H9.79219C9.72409 33.4814 9.65878 33.4544 9.61063 33.4062C9.56248 33.3581 9.53543 33.2927 9.53543 33.2246V25.4361L6.26594 24.3423C6.20418 24.3211 6.15281 24.2772 6.12229 24.2194C6.09176 24.1617 6.08437 24.0945 6.10161 24.0316C6.75465 21.7207 6.99772 20.7227 7.00029 20.7124C7.00225 20.7021 7.00541 20.6921 7.00971 20.6825C7.59941 19.1273 9.20249 17.734 11.1924 17.0467L11.219 17.0381C11.2389 17.0312 11.2596 17.0269 11.2806 17.0253C11.2883 17.0253 11.902 16.9765 12.341 16.9174V16.6752C12.341 16.6071 12.3681 16.5418 12.4162 16.4937C12.4644 16.4455 12.5297 16.4185 12.5978 16.4185H15.8878C15.9559 16.4185 16.0212 16.4455 16.0694 16.4937C16.1175 16.5418 16.1446 16.6071 16.1446 16.6752V16.9072C16.2353 16.9166 16.3414 16.926 16.4458 16.9354C16.7151 16.9517 16.9832 16.984 17.2487 17.0321L17.2726 17.039C19.1556 17.71 20.5721 19.0178 21.1609 20.6286L21.76 22.0211L22.1983 23.1337C22.2189 23.1874 22.2209 23.2464 22.204 23.3014C22.187 23.3563 22.1522 23.404 22.105 23.4367L19.2805 25.3625V33.2238C19.2805 33.2919 19.2535 33.3572 19.2053 33.4053C19.1572 33.4535 19.0919 33.4806 19.0238 33.4806L19.0272 33.4874ZM10.0464 32.9739H16.861L18.773 32.979V25.2367C18.7733 25.1953 18.7836 25.1547 18.803 25.1182C18.8223 25.0817 18.8502 25.0504 18.8843 25.027L21.6522 23.144L21.2919 22.2256L20.6885 20.834L20.6833 20.8203C20.1493 19.3524 18.8483 18.1551 17.1126 17.5328C16.9902 17.5054 16.6624 17.4755 16.3979 17.4515C16.1574 17.4301 15.9503 17.4113 15.8425 17.3916C15.7841 17.3805 15.7314 17.3496 15.6933 17.304C15.6553 17.2584 15.6342 17.2011 15.6336 17.1417V16.9397H12.852V17.1468C12.8516 17.2066 12.8303 17.2643 12.7919 17.3101C12.7534 17.3559 12.7002 17.3868 12.6414 17.3976C12.2452 17.4661 11.5194 17.5268 11.3576 17.5397C9.51574 18.1773 8.03762 19.4474 7.49499 20.8588C7.46247 20.9915 7.22539 21.9424 6.66222 23.9468L9.87521 25.0227C9.92516 25.0403 9.96842 25.073 9.99906 25.1162C10.0297 25.1594 10.0462 25.2111 10.0464 25.264V32.9739Z" fill="#444445"/>
<path d="M16.2634 15.1748C16.2634 14.0564 15.3568 13.1497 14.2384 13.1497C13.12 13.1497 12.2134 14.0564 12.2134 15.1748V17.1322C12.2134 18.2506 13.12 19.1572 14.2384 19.1572C15.3568 19.1572 16.2634 18.2506 16.2634 17.1322V15.1748Z" fill="#CFB59C"/>
<path d="M14.2385 19.4106C13.6342 19.4099 13.0548 19.1696 12.6276 18.7423C12.2003 18.315 11.9599 17.7357 11.9592 17.1314V15.1748C11.9534 14.8718 12.008 14.5705 12.1199 14.2888C12.2318 14.0071 12.3988 13.7505 12.6111 13.5341C12.8234 13.3177 13.0766 13.1458 13.3561 13.0284C13.6357 12.911 13.9358 12.8506 14.2389 12.8506C14.542 12.8506 14.8421 12.911 15.1216 13.0284C15.4011 13.1458 15.6544 13.3177 15.8667 13.5341C16.079 13.7505 16.2459 14.0071 16.3579 14.2888C16.4698 14.5705 16.5244 14.8718 16.5185 15.1748V17.1314C16.5179 17.7358 16.2774 18.3153 15.8499 18.7426C15.4224 19.1699 14.8429 19.4102 14.2385 19.4106ZM14.2385 13.404C13.769 13.4045 13.3188 13.5912 12.9868 13.9232C12.6548 14.2552 12.4681 14.7053 12.4676 15.1748V17.1314C12.4676 17.601 12.6542 18.0515 12.9863 18.3836C13.3184 18.7157 13.7688 18.9022 14.2385 18.9022C14.7081 18.9022 15.1585 18.7157 15.4906 18.3836C15.8227 18.0515 16.0093 17.601 16.0093 17.1314V15.1748C16.0088 14.7053 15.8221 14.2552 15.4901 13.9232C15.1581 13.5912 14.708 13.4045 14.2385 13.404Z" fill="#444445"/>
<path d="M19.6649 12.5139C19.658 14.4644 17.2864 16.0401 14.3669 16.0333H14.2642C11.3448 16.0264 8.98257 14.4405 8.98941 12.4908L9.01167 5.36123C9.01851 3.41152 11.3902 1.83584 14.3096 1.84268H14.4123C17.3317 1.84953 19.694 3.43549 19.6871 5.3852L19.6649 12.5139Z" fill="#CFB59C"/>
<path d="M15.3785 1.90496V15.9689C17.8152 15.6591 19.6579 14.2331 19.6647 12.5137L19.6853 5.38499C19.693 3.6561 17.8357 2.21394 15.3785 1.90496Z" fill="#CFB59C"/>
<path d="M14.3849 16.1172H14.2642C12.8297 16.1172 11.4809 15.7372 10.4675 15.0567C9.45412 14.3763 8.88667 13.4605 8.88923 12.4891L8.91234 5.36041C8.91833 3.37219 11.3302 1.75884 14.2933 1.75884H14.414C15.8484 1.75884 17.1973 2.13886 18.2107 2.82014C19.2241 3.50143 19.7915 4.41637 19.7889 5.3878L19.7658 12.5173C19.7581 14.503 17.3462 16.1172 14.3849 16.1172ZM14.2933 1.92574C11.4415 1.92574 9.11947 3.46634 9.11348 5.36127L9.09037 12.4908C9.09037 13.4083 9.62187 14.2728 10.5942 14.9258C11.5664 15.5788 12.8768 15.9469 14.2668 15.9529H14.3866C17.2384 15.9529 19.5604 14.4123 19.5664 12.5165L19.5895 5.3878C19.5895 4.47029 19.058 3.60585 18.0866 2.9528C17.1152 2.29976 15.8031 1.93173 14.4131 1.92574H14.2933Z" fill="#444445"/>
<path d="M14.3849 16.2181H14.2642C12.8092 16.2181 11.4398 15.8321 10.4128 15.1396C9.36344 14.4352 8.78658 13.4938 8.78658 12.4864L8.80968 5.35772C8.81568 3.319 11.2763 1.65687 14.2933 1.65687H14.4132C15.8682 1.65687 17.2376 2.04287 18.2647 2.73443C19.314 3.43968 19.8908 4.38115 19.8908 5.38768L19.8677 12.5164C19.8566 14.5568 17.4002 16.2181 14.3849 16.2181ZM14.3729 16.0469L14.3849 16.1128V16.0469H14.3729ZM14.3096 2.02319H14.2933C11.498 2.02319 9.22051 3.51928 9.21452 5.36114L9.19141 12.4898C9.19141 13.3722 9.70494 14.2067 10.6464 14.8401C11.6084 15.4863 12.8931 15.844 14.2625 15.8466H14.3824C17.1768 15.8466 19.4552 14.3505 19.4603 12.5086L19.4834 5.37912C19.4834 4.49755 18.9699 3.66734 18.0284 3.02971C17.0664 2.38352 15.7817 2.02575 14.4123 2.02233L14.3096 2.02319ZM14.2925 1.81949H14.3036L14.2925 1.75444V1.81949Z" fill="#444445"/>
<path d="M12.9709 8.22509C12.9707 8.29618 12.9495 8.36563 12.9098 8.42465C12.8702 8.48367 12.8139 8.52961 12.7482 8.55666C12.6824 8.58371 12.6101 8.59066 12.5404 8.57663C12.4707 8.56259 12.4068 8.5282 12.3566 8.47781C12.3065 8.42742 12.2724 8.36328 12.2587 8.29352C12.245 8.22375 12.2523 8.15149 12.2796 8.08587C12.307 8.02025 12.3532 7.96422 12.4124 7.92486C12.4716 7.88551 12.5412 7.86459 12.6123 7.86476C12.7075 7.86521 12.7987 7.90337 12.8659 7.9709C12.9331 8.03842 12.9709 8.12982 12.9709 8.22509Z" fill="#444445"/>
<path d="M18.2937 8.22509C18.2936 8.29622 18.2723 8.3657 18.2326 8.42474C18.1929 8.48378 18.1366 8.52972 18.0708 8.55675C18.005 8.58377 17.9327 8.59067 17.863 8.57656C17.7933 8.56246 17.7293 8.52798 17.6792 8.4775C17.6291 8.42703 17.595 8.36281 17.5814 8.29299C17.5678 8.22317 17.5752 8.15089 17.6027 8.08528C17.6302 8.01968 17.6766 7.9637 17.7359 7.92445C17.7952 7.88519 17.8649 7.86442 17.936 7.86476C18.0312 7.86521 18.1223 7.9034 18.1894 7.97095C18.2564 8.0385 18.294 8.1299 18.2937 8.22509Z" fill="#444445"/>
<path d="M17.787 9.69287C17.2812 9.69287 16.8712 10.0438 16.8712 10.4769C16.8712 10.9099 17.2812 11.2609 17.787 11.2609C18.2928 11.2609 18.7028 10.9099 18.7028 10.4769C18.7028 10.0438 18.2928 9.69287 17.787 9.69287Z" fill="#AF7D77"/>
<path d="M12.7176 11.2609C13.2234 11.2609 13.6334 10.9098 13.6334 10.4769C13.6334 10.0439 13.2234 9.69287 12.7176 9.69287C12.2118 9.69287 11.8018 10.0439 11.8018 10.4769C11.8018 10.9098 12.2118 11.2609 12.7176 11.2609Z" fill="#AF7D77"/>
<path d="M15.4351 10.8371C15.3075 10.8391 15.1833 10.796 15.0842 10.7156C15.0649 10.6993 15.0529 10.6761 15.0507 10.651C15.0485 10.6259 15.0564 10.6009 15.0727 10.5816C15.0889 10.5623 15.1121 10.5503 15.1372 10.5481C15.1624 10.5459 15.1873 10.5538 15.2066 10.5701C15.2665 10.6144 15.3378 10.6406 15.4122 10.6456C15.4865 10.6506 15.5607 10.6342 15.626 10.5983C15.687 10.5638 15.7368 10.5124 15.7694 10.4503C15.8021 10.3883 15.8161 10.3181 15.81 10.2483C15.7985 10.1749 15.7702 10.1052 15.7273 10.0446C15.6844 9.98405 15.628 9.93422 15.5627 9.89905C15.5007 9.8636 15.4333 9.83873 15.3632 9.82545L15.2862 9.81004V9.11335C15.2862 9.08815 15.2962 9.06399 15.314 9.04617C15.3318 9.02835 15.356 9.01835 15.3812 9.01835C15.3936 9.01835 15.406 9.02081 15.4174 9.02559C15.4289 9.03038 15.4393 9.03739 15.4481 9.04622C15.4568 9.05506 15.4638 9.06554 15.4684 9.07706C15.4731 9.08858 15.4755 9.10091 15.4754 9.11335V9.65684C15.5389 9.67565 15.6001 9.70179 15.6577 9.73472C15.7494 9.78444 15.8282 9.85505 15.8877 9.94083C15.9472 10.0266 15.9856 10.1252 16 10.2286C16.0096 10.3353 15.9884 10.4426 15.9388 10.5376C15.8891 10.6326 15.8132 10.7113 15.7201 10.7644C15.633 10.8127 15.5348 10.8377 15.4351 10.8371Z" fill="#444445"/>
<path d="M16.8173 12.6721C16.794 12.6729 16.7716 12.6803 16.7524 12.6935C16.7333 12.7067 16.7184 12.7251 16.7094 12.7465C16.5823 13.0355 16.3764 13.2828 16.1153 13.4602C15.8542 13.6375 15.5485 13.7378 15.233 13.7495C14.9176 13.7612 14.6053 13.6839 14.3317 13.5263C14.0582 13.3688 13.8346 13.1374 13.6864 12.8587C13.6758 12.8378 13.6594 12.8204 13.6393 12.8084C13.6191 12.7964 13.596 12.7904 13.5726 12.7911C13.5518 12.7918 13.5316 12.7977 13.5137 12.8084C13.4959 12.819 13.481 12.834 13.4705 12.8519C13.46 12.8699 13.4542 12.8902 13.4536 12.911C13.4531 12.9317 13.4578 12.9523 13.4673 12.9708C13.6369 13.2909 13.8933 13.5568 14.2071 13.7378C14.5209 13.9189 14.8793 14.0079 15.2413 13.9946C15.6034 13.9813 15.9543 13.8662 16.2539 13.6626C16.5536 13.4589 16.7897 13.175 16.9354 12.8433C16.9434 12.8242 16.9466 12.8033 16.9445 12.7827C16.9424 12.7621 16.9351 12.7423 16.9233 12.7253C16.9115 12.7082 16.8956 12.6944 16.8771 12.6851C16.8586 12.6758 16.838 12.6713 16.8173 12.6721Z" fill="#424243"/>
<path d="M9.29402 8.07855C9.29402 8.07855 7.7637 8.08625 7.76113 9.28193C7.75856 10.4776 9.28803 10.4802 9.28803 10.4802L9.29402 8.07855Z" fill="#C7A996"/>
<path d="M8.78825 10.2483C8.56902 10.2176 8.36413 10.1215 8.20025 9.97271C8.03507 9.80838 7.95205 9.57643 7.9529 9.28201C7.9529 8.84037 8.23107 8.38418 8.68469 8.28918C8.85443 8.262 9.02644 8.25168 9.19822 8.25837V8.03755C9.19822 7.9862 9.1597 7.95196 9.12204 7.91858C9.08466 7.88316 9.03488 7.86381 8.98339 7.86466C8.49639 7.87579 7.5746 8.18819 7.57203 9.28115C7.57203 9.68256 7.69271 10.0078 7.93578 10.2474C8.3312 10.6377 8.90722 10.6506 8.97825 10.6506H8.98681C9.09123 10.6506 9.18623 10.7105 9.18709 10.6061V10.4546C9.18632 10.4043 9.16657 10.3562 9.13182 10.3198C9.09706 10.2835 9.04985 10.2616 8.99965 10.2586C8.89181 10.2526 8.78825 10.2466 8.78825 10.2483Z" fill="#444445"/>
<path d="M8.9578 8.53047C8.9578 8.53047 8.23714 8.54759 8.23543 9.25199C8.23372 9.95638 8.95352 9.94611 8.95352 9.94611L8.9578 8.53047Z" fill="#B59987"/>
<path d="M45.2782 43.5209H42.761V58.4826H45.2782V43.5209Z" fill="#464647"/>
<path d="M49.0568 58.2464H39.007C38.8317 58.2463 38.6632 58.3147 38.5376 58.437C38.4119 58.5593 38.339 58.7259 38.3343 58.9012L38.3095 59.8118H49.7056L49.7296 58.938C49.732 58.8481 49.7163 58.7586 49.6836 58.6749C49.6509 58.5911 49.6017 58.5148 49.539 58.4503C49.4763 58.3859 49.4014 58.3346 49.3185 58.2996C49.2357 58.2646 49.1467 58.2465 49.0568 58.2464Z" fill="#6D6D6D"/>
<path d="M49.7056 60.0909H38.3095C38.2722 60.0908 38.2352 60.0833 38.2009 60.0687C38.1665 60.0542 38.1354 60.033 38.1094 60.0063C38.0833 59.9796 38.0628 59.948 38.0491 59.9133C38.0354 59.8786 38.0288 59.8415 38.0296 59.8042L38.0553 58.8935C38.0606 58.6451 38.1634 58.4087 38.3414 58.2353C38.5195 58.0619 38.7585 57.9654 39.007 57.9666H49.0568C49.1842 57.9665 49.3103 57.992 49.4276 58.0416C49.5449 58.0911 49.6512 58.1636 49.74 58.2549C49.8288 58.3462 49.8984 58.4544 49.9447 58.573C49.991 58.6917 50.013 58.8184 50.0094 58.9457L49.9837 59.8196C49.9817 59.8921 49.9516 59.961 49.8997 60.0116C49.8477 60.0623 49.7781 60.0907 49.7056 60.0909ZM38.6005 59.532H49.4334L49.4505 58.9329C49.4519 58.8803 49.4427 58.8279 49.4236 58.7789C49.4044 58.7299 49.3756 58.6853 49.339 58.6475C49.3023 58.6098 49.2584 58.5798 49.21 58.5593C49.1615 58.5388 49.1094 58.5281 49.0568 58.5281H39.007C38.9044 58.5276 38.8058 58.5674 38.7323 58.639C38.6588 58.7105 38.6164 58.8081 38.6142 58.9106L38.6005 59.532Z" fill="#464647"/>
<path d="M42.0299 23.8046H46.0097C47.6979 23.8046 49.3169 24.4753 50.5106 25.669C51.7044 26.8627 52.375 28.4817 52.375 30.1699V45.9678H35.6647V30.1699C35.6647 28.4817 36.3353 26.8627 37.529 25.669C38.7227 24.4753 40.3417 23.8046 42.0299 23.8046Z" fill="#C9252C"/>
<path d="M52.6285 46.2221H35.4106V30.1699C35.4127 28.415 36.1107 26.7325 37.3517 25.4915C38.5926 24.2506 40.2751 23.5525 42.0301 23.5505H46.0091C47.764 23.5525 49.4465 24.2506 50.6875 25.4915C51.9284 26.7325 52.6265 28.415 52.6285 30.1699V46.2221ZM35.919 45.7137H52.1235V30.1699C52.1217 28.5497 51.4773 26.9964 50.3316 25.8508C49.186 24.7051 47.6327 24.0607 46.0125 24.0589H42.0301C40.4099 24.0607 38.8566 24.7051 37.7109 25.8508C36.5653 26.9964 35.9208 28.5497 35.919 30.1699V45.7137Z" fill="#464647"/>
<path d="M52.3742 46.3889H35.6648C35.5535 46.3889 35.4469 46.3447 35.3682 46.2661C35.2896 46.1874 35.2454 46.0807 35.2454 45.9695V30.1699C35.2474 28.3711 35.9629 26.6466 37.2348 25.3747C38.5067 24.1027 40.2312 23.3873 42.03 23.3852H46.009C47.8078 23.3873 49.5324 24.1027 50.8045 25.3746C52.0766 26.6465 52.7922 28.371 52.7945 30.1699V45.9678C52.7947 46.0231 52.784 46.0779 52.763 46.129C52.7419 46.1802 52.711 46.2266 52.6719 46.2658C52.6329 46.3049 52.5865 46.3359 52.5354 46.3571C52.4843 46.3782 52.4295 46.389 52.3742 46.3889ZM36.0841 45.5501H51.9523V30.1699C51.9511 28.5935 51.3248 27.0819 50.2106 25.9668C49.0964 24.8516 47.5854 24.2239 46.009 24.2214H42.03C40.4532 24.2233 38.9415 24.8506 37.8267 25.9658C36.712 27.0811 36.0853 28.593 36.0841 30.1699V45.5501Z" fill="#464647"/>
<path d="M50.7318 29.8978H37.308V37.5786H50.7318V29.8978Z" fill="white"/>
<path d="M50.7318 37.8582H37.3081C37.2339 37.8582 37.1627 37.8287 37.1102 37.7762C37.0577 37.7237 37.0282 37.6525 37.0282 37.5783V29.8976C37.0281 29.8608 37.0353 29.8244 37.0493 29.7903C37.0633 29.7563 37.0839 29.7254 37.1099 29.6994C37.1359 29.6734 37.1668 29.6528 37.2009 29.6388C37.2349 29.6248 37.2713 29.6176 37.3081 29.6177H50.7318C50.7685 29.6177 50.8049 29.625 50.8388 29.639C50.8727 29.6531 50.9035 29.6737 50.9294 29.6997C50.9553 29.7257 50.9759 29.7566 50.9898 29.7905C51.0038 29.8245 51.0109 29.8609 51.0108 29.8976V37.5783C51.0108 37.6524 50.9815 37.7234 50.9292 37.7759C50.8769 37.8284 50.8059 37.858 50.7318 37.8582ZM37.5871 37.2984H50.4519V30.1775H37.5871V37.2984Z" fill="#464647"/>
<path d="M50.7318 35.8854H37.308V37.5784H50.7318V35.8854Z" fill="#464647"/>
<path d="M40.2926 26.3614H39.8073C39.747 26.3593 39.6883 26.3812 39.644 26.4222C39.5997 26.4633 39.5735 26.5202 39.5711 26.5805V28.5097C39.5761 28.5688 39.6032 28.624 39.6469 28.6642C39.6907 28.7043 39.7479 28.7266 39.8073 28.7266C39.8667 28.7266 39.9239 28.7043 39.9677 28.6642C40.0114 28.624 40.0385 28.5688 40.0435 28.5097V27.8344H40.2926C40.7531 27.8344 41.1271 27.5049 41.1271 27.0992C41.1271 26.6935 40.7531 26.3614 40.2926 26.3614ZM40.2926 27.3953H40.0435V26.7962H40.2926C40.492 26.7962 40.6546 26.9306 40.6546 27.0957C40.6546 27.2609 40.4954 27.3885 40.2926 27.3885V27.3953Z" fill="white"/>
<path d="M42.6463 26.4306C42.5218 26.3596 42.381 26.3223 42.2376 26.3223C42.0943 26.3223 41.9535 26.3596 41.829 26.4306C41.4216 26.6659 41.2778 27.1718 41.2778 27.5338C41.2778 27.8959 41.4216 28.3991 41.8315 28.6379C41.9559 28.7088 42.0966 28.7461 42.2398 28.7461C42.383 28.7461 42.5237 28.7088 42.648 28.6379C43.0572 28.3983 43.2027 27.8933 43.2027 27.5347C43.2027 27.1761 43.0563 26.6677 42.6463 26.4306ZM42.3896 28.2656C42.3449 28.2941 42.2927 28.3084 42.2398 28.3067C42.1835 28.3079 42.1281 28.2924 42.0806 28.2622C41.8495 28.1304 41.7459 27.8009 41.7459 27.5338C41.7459 27.2771 41.8615 26.951 42.0815 26.8055C42.1306 26.7799 42.1845 26.7647 42.2398 26.761C42.294 26.7646 42.3468 26.7797 42.3947 26.8055C42.6147 26.951 42.7302 27.2805 42.7302 27.5338C42.7302 27.8026 42.6266 28.1329 42.3956 28.2613L42.3896 28.2656Z" fill="white"/>
<path d="M44.3349 27.2702C44.0713 27.1949 43.9198 27.1264 43.9198 26.9972C43.9204 26.9715 43.9261 26.9461 43.9365 26.9226C43.9469 26.8991 43.9619 26.8779 43.9806 26.8602C44.0152 26.8287 44.0557 26.8042 44.0998 26.7884C44.1438 26.7725 44.1906 26.7655 44.2374 26.7678H44.2494C44.3145 26.7628 44.3796 26.7788 44.435 26.8135C44.4905 26.8481 44.5334 26.8996 44.5575 26.9604C44.5582 26.9686 44.5582 26.9769 44.5575 26.9852V26.9997C44.5559 27.0307 44.5597 27.0617 44.5686 27.0913L44.5755 27.1059C44.5897 27.1528 44.6195 27.1934 44.66 27.2211C44.7004 27.2488 44.7491 27.2619 44.798 27.2582C44.8583 27.2603 44.917 27.2384 44.9613 27.1974C45.0055 27.1563 45.0318 27.0994 45.0342 27.0391C45.0342 26.6274 44.6919 26.3287 44.228 26.3287C43.7949 26.3287 43.4423 26.6291 43.4423 26.9972C43.4423 27.4748 43.9267 27.6143 44.1877 27.6904C44.3307 27.729 44.6619 27.8411 44.6619 28.0456C44.6619 28.2502 44.4779 28.3135 44.305 28.3135C44.2254 28.3167 44.1465 28.2984 44.0765 28.2605L44.0696 28.2562C44.0313 28.2397 43.9978 28.2139 43.9719 28.1812C43.9461 28.1484 43.9288 28.1098 43.9216 28.0688L43.9173 28.0499C43.9168 28.0451 43.9168 28.0402 43.9173 28.0354C43.9179 28.0243 43.9179 28.0131 43.9173 28.002C43.9173 27.9969 43.9173 27.9909 43.9173 27.9866V27.9789C43.9158 27.9501 43.9085 27.922 43.896 27.896C43.8834 27.8701 43.8659 27.8469 43.8443 27.8279C43.8227 27.8088 43.7975 27.7943 43.7702 27.7851C43.7429 27.7759 43.7141 27.7722 43.6853 27.7743C43.6252 27.7729 43.5668 27.795 43.5227 27.8359C43.4786 27.8768 43.4522 27.9333 43.4491 27.9934C43.4491 28.4402 43.8052 28.7526 44.3153 28.7526C44.8023 28.7526 45.1412 28.4616 45.1412 28.0456C45.1395 27.6879 44.8682 27.4268 44.3349 27.2702Z" fill="white"/>
<path d="M46.6288 26.3809H45.4657C45.4357 26.379 45.4056 26.3833 45.3774 26.3935C45.3491 26.4037 45.3232 26.4195 45.3013 26.4401C45.2794 26.4607 45.262 26.4855 45.2501 26.5131C45.2381 26.5407 45.232 26.5704 45.232 26.6004C45.232 26.6305 45.2381 26.6602 45.2501 26.6878C45.262 26.7153 45.2794 26.7402 45.3013 26.7607C45.3232 26.7813 45.3491 26.7972 45.3774 26.8073C45.4056 26.8175 45.4357 26.8218 45.4657 26.8199H45.808V28.4915C45.8131 28.5507 45.8401 28.6058 45.8839 28.646C45.9276 28.6862 45.9848 28.7084 46.0442 28.7084C46.1036 28.7084 46.1609 28.6862 46.2046 28.646C46.2483 28.6058 46.2754 28.5507 46.2805 28.4915V26.8199H46.6228C46.6528 26.8218 46.6828 26.8175 46.7111 26.8073C46.7394 26.7972 46.7652 26.7813 46.7871 26.7607C46.809 26.7402 46.8265 26.7153 46.8384 26.6878C46.8503 26.6602 46.8565 26.6305 46.8565 26.6004C46.8565 26.5704 46.8503 26.5407 46.8384 26.5131C46.8265 26.4855 46.809 26.4607 46.7871 26.4401C46.7652 26.4195 46.7394 26.4037 46.7111 26.3935C46.6828 26.3833 46.6528 26.379 46.6228 26.3809H46.6288Z" fill="white"/>
<path d="M48.1863 27.7171H46.6859C46.643 27.7171 46.6019 27.7 46.5715 27.6697C46.5412 27.6394 46.5242 27.5982 46.5242 27.5553C46.5241 27.534 46.5282 27.513 46.5362 27.4933C46.5443 27.4736 46.5562 27.4557 46.5713 27.4407C46.5863 27.4256 46.6042 27.4137 46.6239 27.4056C46.6436 27.3975 46.6646 27.3934 46.6859 27.3936H48.1863C48.2292 27.3936 48.2703 27.4106 48.3007 27.4409C48.331 27.4713 48.3481 27.5124 48.3481 27.5553C48.3481 27.5982 48.331 27.6394 48.3007 27.6697C48.2703 27.7 48.2292 27.7171 48.1863 27.7171Z" fill="white"/>
<path d="M47.9092 26.4999H47.2134C47.124 26.4999 47.0516 26.5723 47.0516 26.6616V26.6736C47.0516 26.7629 47.124 26.8354 47.2134 26.8354H47.9092C47.9985 26.8354 48.071 26.7629 48.071 26.6736V26.6616C48.071 26.5723 47.9985 26.4999 47.9092 26.4999Z" fill="white"/>
<path d="M49.4428 28.2142H47.1413C47.052 28.2142 46.9795 28.2866 46.9795 28.376V28.4478C46.9795 28.5372 47.052 28.6096 47.1413 28.6096H49.4428C49.5321 28.6096 49.6045 28.5372 49.6045 28.4478V28.376C49.6045 28.2866 49.5321 28.2142 49.4428 28.2142Z" fill="white"/>
<path d="M13.2944 1.63808C11.551 1.83322 9.73822 2.78925 9.18617 4.4548C9.13739 4.60373 9.10059 4.75608 9.04153 4.90072C8.95594 5.10442 8.83954 5.29015 8.75224 5.49128C8.36452 6.38483 8.89089 7.33229 9.19131 8.25836C9.31456 7.58906 9.25293 6.96341 9.73223 6.47897C10.4221 5.78057 11.5296 5.75489 12.507 5.82764C13.7994 5.9235 14.9942 6.461 16.2609 6.73574C17.2024 6.93944 18.7747 7.59163 19.6408 6.91376C21.4639 5.487 18.0078 2.60609 16.8378 2.12594C15.7155 1.67154 14.4977 1.50387 13.2944 1.63808Z" fill="#454446"/>
<path d="M12.6407 0.256774H16.1378C17.1863 0.256774 18.1919 0.673286 18.9333 1.41468C19.6747 2.15608 20.0912 3.16162 20.0912 4.21011V5.38524H8.68735V4.20755C8.68803 3.1595 9.10484 2.15461 9.84616 1.41377C10.5875 0.672933 11.5926 0.256774 12.6407 0.256774Z" fill="#C9252C"/>
<path d="M20.3463 5.63943H8.43321V4.20754C8.43457 3.0919 8.87841 2.02235 9.66737 1.23356C10.4563 0.444762 11.526 0.00113249 12.6416 0L16.1387 0C17.2543 0.00113289 18.3239 0.44479 19.1127 1.23361C19.9015 2.02243 20.3452 3.09198 20.3463 4.20754V5.63943ZM8.9416 5.13532H19.8379V4.20754C19.8368 3.22681 19.4467 2.28658 18.7532 1.5931C18.0597 0.899622 17.1195 0.509529 16.1387 0.508396H12.6416C11.6607 0.509303 10.7203 0.899296 10.0266 1.5928C9.33295 2.2863 8.94274 3.22666 8.9416 4.20754V5.13532Z" fill="#464647"/>
<path d="M14.2188 3.24648H16.4929C16.6205 3.24648 16.7428 3.29716 16.833 3.38737C16.9232 3.47758 16.9739 3.59992 16.9739 3.72749V4.31377H13.7378V3.72749C13.7378 3.66433 13.7502 3.60178 13.7744 3.54342C13.7986 3.48506 13.834 3.43203 13.8787 3.38737C13.9233 3.3427 13.9764 3.30727 14.0347 3.2831C14.0931 3.25893 14.1556 3.24648 14.2188 3.24648Z" fill="#454446"/>
<path d="M16.974 4.4685H13.7379C13.6968 4.4685 13.6574 4.45218 13.6284 4.42313C13.5993 4.39408 13.583 4.35467 13.583 4.31359V3.7273C13.583 3.55865 13.65 3.3969 13.7693 3.27764C13.8885 3.15838 14.0503 3.09138 14.2189 3.09138H16.493C16.6617 3.09138 16.8234 3.15838 16.9427 3.27764C17.0619 3.3969 17.1289 3.55865 17.1289 3.7273V4.31359C17.1289 4.35467 17.1126 4.39408 17.0836 4.42313C17.0545 4.45218 17.0151 4.4685 16.974 4.4685ZM13.8928 4.15867H16.8191V3.73073C16.8189 3.64431 16.7845 3.5615 16.7233 3.50039C16.6622 3.43929 16.5794 3.40486 16.493 3.40464H14.2189C14.1325 3.40486 14.0497 3.43929 13.9886 3.50039C13.9275 3.5615 13.8931 3.64431 13.8928 3.73073V4.15867Z" fill="#464647"/>
<path d="M13.4537 7.37089H11.8018C11.7877 7.37218 11.7735 7.37052 11.7601 7.36602C11.7466 7.36151 11.7343 7.35425 11.7238 7.34471C11.7134 7.33516 11.705 7.32354 11.6993 7.31059C11.6936 7.29763 11.6906 7.28363 11.6906 7.26946C11.6906 7.2553 11.6936 7.2413 11.6993 7.22834C11.705 7.21538 11.7134 7.20376 11.7238 7.19422C11.7343 7.18468 11.7466 7.17742 11.7601 7.17291C11.7735 7.1684 11.7877 7.16674 11.8018 7.16804H13.4537C13.4678 7.16674 13.482 7.1684 13.4954 7.17291C13.5088 7.17742 13.5212 7.18468 13.5316 7.19422C13.5421 7.20376 13.5505 7.21538 13.5562 7.22834C13.5619 7.2413 13.5648 7.2553 13.5648 7.26946C13.5648 7.28363 13.5619 7.29763 13.5562 7.31059C13.5505 7.32354 13.5421 7.33516 13.5316 7.34471C13.5212 7.35425 13.5088 7.36151 13.4954 7.36602C13.482 7.37052 13.4678 7.37218 13.4537 7.37089Z" fill="#454446"/>
<path d="M18.838 18.1284C18.173 17.5978 17.1844 17.2854 17.1844 17.2854C16.7009 18.921 11.1265 26.796 8.30633 31.0301H4.59692C3.97972 31.0301 3.3878 31.2752 2.95137 31.7117C2.51495 32.1481 2.26976 32.74 2.26976 33.3572V39.9809C2.26976 40.6437 2.53307 41.2794 3.00176 41.7481C3.47045 42.2168 4.10613 42.4801 4.76895 42.4801H7.31265C7.75355 42.4799 8.17632 42.3046 8.488 41.9927C8.79969 41.6809 8.97478 41.258 8.97478 40.8171V33.7329C11.7008 29.8703 19.42 18.5923 18.838 18.1284Z" fill="#BD8F32"/>
<path d="M7.31255 42.7342H4.76885C4.03882 42.7335 3.33888 42.4432 2.82266 41.927C2.30645 41.4108 2.01615 40.7109 2.01547 39.9808V33.3571C2.01615 32.6727 2.28833 32.0165 2.77228 31.5326C3.25623 31.0486 3.91241 30.7765 4.59682 30.7758H8.17014C8.84116 29.7701 9.65938 28.571 10.523 27.3043C13.2242 23.3433 16.5861 18.4142 16.9421 17.2134L17.0157 16.9644L17.2631 17.0431C17.305 17.0559 18.3038 17.376 18.998 17.9298C19.3472 18.208 18.8876 19.0673 18.1472 20.346C17.519 21.4329 16.5809 22.929 15.3613 24.7966C13.0692 28.3006 10.4536 32.0802 9.23059 33.8159V40.817C9.22991 41.3255 9.02758 41.8128 8.668 42.1722C8.30842 42.5317 7.82095 42.7338 7.31255 42.7342ZM4.59682 31.2842C4.04724 31.2849 3.52037 31.5035 3.13177 31.8921C2.74316 32.2807 2.52454 32.8076 2.52386 33.3571V39.9808C2.52454 40.576 2.76128 41.1467 3.18215 41.5675C3.60302 41.9884 4.17365 42.2251 4.76885 42.2258H7.31255C7.68596 42.2254 8.04394 42.0768 8.30791 41.8127C8.57187 41.5485 8.72025 41.1905 8.72048 40.817V33.6524L8.7667 33.5865C15.0532 24.6716 18.4545 19.0758 18.6094 18.273C18.2159 17.9972 17.788 17.7739 17.3367 17.6088C16.6819 19.1751 13.6427 23.6317 10.9432 27.591C10.0471 28.9048 9.20149 30.145 8.51763 31.1712L8.44231 31.2842H4.59682Z" fill="#444445"/>
<path d="M7.4616 33.2332H3.97985V34.8868H7.4616V33.2332Z" fill="#AD9770"/>
<path d="M7.46247 35.141H3.97987C3.91177 35.141 3.84646 35.1139 3.79831 35.0658C3.75016 35.0176 3.72311 34.9523 3.72311 34.8842V33.2332C3.72311 33.1651 3.75016 33.0998 3.79831 33.0516C3.84646 33.0035 3.91177 32.9764 3.97987 32.9764H7.46247C7.53057 32.9764 7.59588 33.0035 7.64403 33.0516C7.69219 33.0998 7.71924 33.1651 7.71924 33.2332V34.8868C7.71856 34.9544 7.69121 35.0191 7.64313 35.0667C7.59505 35.1143 7.53013 35.141 7.46247 35.141ZM4.23407 34.6326H7.20828V33.4874H4.23407V34.6326Z" fill="#444445"/>
<path d="M6.34893 24.1077L4.86568 29.2096C4.67969 29.7609 4.67471 30.3571 4.85147 30.9114C5.02822 31.4657 5.37746 31.949 5.84823 32.2908L12.0431 36.3897L13.4536 34.2619L9.40701 31.5736C8.86674 31.2118 8.47329 30.6691 8.29742 30.0431C8.12154 29.4171 8.17478 28.7489 8.44756 28.1586L9.79216 25.264L6.34893 24.1077Z" fill="#CFB59C"/>
<path d="M12.0431 36.6472C11.9933 36.6472 11.9445 36.6326 11.9028 36.6053L5.70786 32.5064L5.69845 32.4996C5.18228 32.1277 4.79911 31.5999 4.60528 30.9939C4.41146 30.388 4.41723 29.7358 4.62174 29.1334L6.10414 24.0366C6.1135 24.0031 6.12955 23.9719 6.15133 23.9448C6.1731 23.9178 6.20014 23.8954 6.23081 23.8791C6.26115 23.8633 6.29435 23.8537 6.32845 23.8509C6.36255 23.8481 6.39686 23.8522 6.42937 23.8628L9.8726 25.0157C9.90638 25.0273 9.93737 25.0458 9.96358 25.0701C9.98979 25.0944 10.0107 25.1238 10.0248 25.1566C10.039 25.1894 10.0462 25.2248 10.0459 25.2605C10.0456 25.2962 10.0379 25.3315 10.0232 25.3641L8.67864 28.2621C8.42677 28.7976 8.37603 29.4059 8.53569 29.9757C8.69536 30.5455 9.05477 31.0389 9.54822 31.3655L13.594 34.053C13.6497 34.0908 13.6883 34.1489 13.7016 34.2148C13.7149 34.2808 13.7017 34.3493 13.665 34.4056L12.2554 36.5334C12.232 36.5683 12.2004 36.5969 12.1634 36.6167C12.1264 36.6366 12.0851 36.647 12.0431 36.6472ZM5.99116 32.0853L11.9704 36.0412L13.0993 34.3363L9.26492 31.7883C8.67018 31.3947 8.23696 30.8001 8.04445 30.1134C7.85194 29.4267 7.913 28.6936 8.21646 28.0481L9.44124 25.4111L6.51924 24.4329L5.1096 29.2806V29.2909C4.93851 29.7897 4.93181 30.3303 5.09047 30.8332C5.24913 31.3361 5.5648 31.775 5.99116 32.0853Z" fill="#444445"/>
<path d="M14.5941 37.3819C15.4722 36.6993 15.6124 35.4105 14.9071 34.5032C14.2019 33.596 12.9183 33.4139 12.0402 34.0965C11.162 34.7792 11.0219 36.068 11.7271 36.9752C12.4324 37.8825 13.716 38.0646 14.5941 37.3819Z" fill="#CFB59C"/>
<path d="M11.8113 36.1764C12.0466 36.4763 12.3589 36.7067 12.7148 36.8433C13.0707 36.9798 13.457 37.0173 13.8325 36.9518C14.208 36.8863 14.5588 36.7202 14.8475 36.4713C15.1361 36.2223 15.3519 35.8998 15.4719 35.5379C15.4829 35.8454 15.4263 36.1515 15.3062 36.4347C15.186 36.7179 15.0051 36.9713 14.7764 37.1769C14.5476 37.3826 14.2765 37.5356 13.9822 37.6252C13.6879 37.7147 13.3775 37.7385 13.0729 37.695C12.7684 37.6515 12.4771 37.5417 12.2196 37.3734C11.9621 37.205 11.7447 36.9822 11.5827 36.7207C11.4207 36.4592 11.318 36.1653 11.2819 35.8598C11.2458 35.5543 11.2772 35.2446 11.3739 34.9525C11.3853 35.3967 11.5386 35.8256 11.8113 36.1764Z" fill="#C7A996"/>
<path d="M11.938 33.9615C12.8872 33.2229 14.2797 33.418 15.0406 34.3972C15.8014 35.3763 15.6482 36.7731 14.6982 37.5117C13.7482 38.2504 12.3565 38.0552 11.5956 37.0761C10.8347 36.097 10.9879 34.7002 11.938 33.9615ZM12.1442 34.226C11.3406 34.8516 11.213 36.0371 11.8609 36.8698C12.5089 37.7026 13.6883 37.8712 14.4919 37.2464C15.2956 36.6216 15.4231 35.4336 14.7752 34.6034C14.1273 33.7732 12.9471 33.6012 12.1442 34.226Z" fill="#444445"/>
<path d="M13.3851 38.0012C13.0335 37.9998 12.6867 37.9181 12.3714 37.7623C12.0561 37.6066 11.7804 37.3809 11.5655 37.1025C10.7952 36.1072 10.9476 34.6855 11.9139 33.9358C12.1457 33.7561 12.4114 33.6251 12.6952 33.5506C12.9789 33.4762 13.2747 33.4599 13.5649 33.5027C14.1611 33.5894 14.7006 33.9034 15.0704 34.379C15.4403 34.8546 15.6117 35.4549 15.5488 36.0541C15.4938 36.5892 15.242 37.0847 14.8422 37.4446C14.4423 37.8044 13.923 38.0028 13.3851 38.0012ZM13.2473 33.5506C12.7823 33.5498 12.3303 33.7047 11.9635 33.9905C11.0306 34.7163 10.88 36.0892 11.628 37.0512C12.3761 38.0132 13.7446 38.2066 14.6775 37.4791C14.9009 37.3051 15.0868 37.0877 15.224 36.84C15.3612 36.5923 15.447 36.3195 15.4761 36.0378C15.5367 35.4583 15.3709 34.8779 15.0132 34.4179C14.6555 33.958 14.1338 33.6542 13.5572 33.5703C13.4545 33.5564 13.351 33.5498 13.2473 33.5506ZM13.3851 37.6589C13.1076 37.6566 12.8335 37.5964 12.5805 37.4822C12.3275 37.368 12.1012 37.2022 11.9159 36.9955C11.7306 36.7888 11.5905 36.5457 11.5045 36.2818C11.4186 36.0178 11.3886 35.7388 11.4166 35.4627C11.4414 35.2146 11.5164 34.9741 11.6371 34.7559C11.7579 34.5378 11.9218 34.3465 12.1189 34.1938C12.316 34.0411 12.5421 33.9301 12.7835 33.8676C13.0249 33.8052 13.2765 33.7925 13.5229 33.8305C14.0318 33.903 14.4923 34.1711 14.8068 34.5777C15.4667 35.4267 15.3366 36.6361 14.5166 37.2746C14.1929 37.5253 13.7946 37.6605 13.3851 37.6589ZM13.2491 33.8836C12.8572 33.8823 12.4763 34.0125 12.1672 34.2533C11.9786 34.4 11.8219 34.5836 11.7065 34.7928C11.5912 35.0021 11.5196 35.2326 11.4962 35.4704C11.4446 35.9608 11.5861 36.452 11.8908 36.8398C12.525 37.6554 13.6821 37.8215 14.4687 37.2095C15.2553 36.5976 15.3794 35.4361 14.7451 34.6196C14.4436 34.2283 14.0016 33.9698 13.5127 33.899C13.4252 33.8886 13.3371 33.8846 13.2491 33.887V33.8836Z" fill="#444445"/>
<path d="M26.3441 29.6068C25.7519 30.7194 24.385 31.1987 23.2467 30.6544C22.6638 30.3754 22.1554 29.9859 21.885 29.5503L19.0272 25.2366L21.9637 23.2364L23.3451 26.113C23.6273 26.7006 24.1103 27.1678 24.7068 27.4303L27.3644 22.5517L29.6521 23.3888L26.3441 29.6068Z" fill="#CFB59C"/>
<path d="M24.2471 31.1363C23.8617 31.1353 23.4814 31.0475 23.1345 30.8795C22.4712 30.562 21.9499 30.1366 21.6658 29.6813L18.8131 25.3753C18.7767 25.3194 18.7635 25.2515 18.7762 25.186C18.789 25.1205 18.8268 25.0625 18.8816 25.0244L21.8199 23.0233C21.8502 23.0031 21.8846 22.9897 21.9206 22.9838C21.9566 22.9779 21.9934 22.9798 22.0286 22.9892C22.0639 22.9987 22.0967 23.0156 22.1249 23.0387C22.1531 23.0619 22.176 23.0908 22.1922 23.1235L23.5744 26.001C23.7963 26.4615 24.155 26.8423 24.6015 27.0914L27.1409 22.4242C27.1704 22.371 27.2178 22.3301 27.2747 22.3086C27.3316 22.2871 27.3943 22.2865 27.4516 22.307L29.7394 23.144C29.7733 23.1568 29.8041 23.1767 29.8298 23.2023C29.8555 23.2279 29.8754 23.2587 29.8884 23.2926C29.9013 23.3264 29.9069 23.3627 29.9048 23.3989C29.9028 23.4351 29.893 23.4704 29.8763 23.5026L26.5692 29.7241C26.3471 30.1483 26.0135 30.504 25.6044 30.7528C25.1953 31.0017 24.726 31.1342 24.2471 31.1363ZM19.378 25.306L22.0963 29.4091C22.3308 29.7848 22.7879 30.1529 23.3562 30.425C23.8492 30.656 24.4125 30.687 24.9278 30.5114C25.4431 30.3359 25.8704 29.9675 26.1198 29.4836L29.2909 23.5197L27.4824 22.8581L24.9301 27.5475C24.8993 27.603 24.849 27.6451 24.7889 27.6656C24.7288 27.6862 24.6633 27.6837 24.6049 27.6588C23.9528 27.3721 23.4248 26.8614 23.1165 26.2192L21.8618 23.6088L19.378 25.306Z" fill="#444445"/>
<path d="M30.644 22.6513C30.7308 21.5424 29.8726 20.5707 28.727 20.481C27.5814 20.3912 26.5822 21.2174 26.4954 22.3262C26.4085 23.4351 27.2668 24.4067 28.4124 24.4965C29.558 24.5862 30.5571 23.7601 30.644 22.6513Z" fill="#CFB59C"/>
<path d="M27.8823 23.8997C28.2625 23.9278 28.6433 23.8523 28.984 23.6813C29.3248 23.5102 29.6128 23.25 29.8174 22.9282C30.022 22.6065 30.1355 22.2353 30.1459 21.8542C30.1564 21.473 30.0632 21.0962 29.8765 20.7638C30.1111 20.9627 30.2992 21.2108 30.4274 21.4903C30.5557 21.7699 30.6211 22.0742 30.619 22.3818C30.6169 22.6894 30.5474 22.9928 30.4152 23.2706C30.2831 23.5484 30.0917 23.7938 29.8544 23.9896C29.6171 24.1853 29.3398 24.3266 29.042 24.4035C28.7441 24.4804 28.433 24.4911 28.1307 24.4347C27.8283 24.3783 27.5419 24.2562 27.2918 24.0772C27.0417 23.8981 26.834 23.6663 26.6832 23.3982C27.0191 23.6892 27.4393 23.8649 27.8823 23.8997Z" fill="#C7A996"/>
<path d="M26.3296 22.3145C26.4238 21.1162 27.5065 20.2175 28.7424 20.3151C29.9783 20.4127 30.9078 21.4663 30.8136 22.6662C30.7195 23.8662 29.6376 24.7623 28.4009 24.6656C27.1641 24.5689 26.2355 23.5136 26.3296 22.3145ZM26.6643 22.341C26.5847 23.3552 27.3755 24.2479 28.4274 24.3309C29.4793 24.414 30.396 23.6548 30.4816 22.6397C30.5671 21.6246 29.7703 20.7319 28.7184 20.6498C27.6665 20.5676 26.7439 21.3259 26.6643 22.3384V22.341Z" fill="#444445"/>
<path d="M28.5866 24.7111C28.5249 24.7111 28.4633 24.7111 28.4008 24.7034C27.7994 24.6595 27.2391 24.3814 26.8406 23.9288C26.6448 23.7102 26.4953 23.4541 26.4012 23.1762C26.3071 22.8982 26.2703 22.604 26.293 22.3114C26.3157 22.0188 26.3975 21.7339 26.5334 21.4737C26.6692 21.2136 26.8564 20.9837 27.0836 20.7979C27.5478 20.4134 28.1442 20.226 28.7449 20.2759C30.0022 20.3743 30.9471 21.4476 30.8512 22.6723C30.7605 23.8286 29.7617 24.7111 28.5866 24.7111ZM28.5609 20.346C28.0398 20.3449 27.5349 20.5266 27.1341 20.8596C26.9151 21.0388 26.7345 21.2605 26.6031 21.5113C26.4718 21.762 26.3924 22.0367 26.3698 22.3189C26.3476 22.6009 26.3827 22.8846 26.473 23.1527C26.5634 23.4209 26.707 23.668 26.8953 23.8791C27.2807 24.3169 27.8226 24.5858 28.4043 24.628C29.6188 24.7248 30.6826 23.8423 30.7759 22.6638C30.8692 21.4852 29.9543 20.4487 28.7389 20.3529C28.679 20.3486 28.6182 20.346 28.5583 20.346H28.5609ZM28.5874 24.3747C28.5344 24.3747 28.4804 24.3747 28.4265 24.3687C27.9128 24.3309 27.4343 24.0938 27.093 23.708C26.9268 23.5227 26.7999 23.3056 26.7201 23.0698C26.6403 22.8341 26.6093 22.5845 26.6289 22.3364C26.6485 22.0882 26.7183 21.8467 26.8342 21.6263C26.95 21.406 27.1094 21.2115 27.3027 21.0547C27.7008 20.7306 28.2084 20.572 28.7203 20.612C29.2321 20.652 29.7089 20.8875 30.0518 21.2695C30.2182 21.4547 30.3451 21.6718 30.425 21.9075C30.5048 22.1433 30.5359 22.3928 30.5164 22.6409C30.4969 22.8891 30.4271 23.1307 30.3113 23.351C30.1956 23.5714 30.0362 23.7659 29.843 23.9228C29.4896 24.2152 29.0452 24.375 28.5866 24.3747H28.5874ZM28.5609 20.6815C28.1205 20.6792 27.6931 20.8306 27.3524 21.1095C27.166 21.2603 27.0124 21.4476 26.9009 21.6598C26.7893 21.872 26.7222 22.1047 26.7036 22.3437C26.685 22.582 26.7151 22.8216 26.792 23.0479C26.869 23.2742 26.9912 23.4825 27.1512 23.66C27.4808 24.0276 27.9391 24.2542 28.4313 24.2927C28.9234 24.3313 29.4115 24.1789 29.7942 23.8672C29.98 23.7168 30.1331 23.5301 30.2444 23.3186C30.3556 23.1071 30.4226 22.8751 30.4413 22.6369C30.4599 22.3986 30.4299 22.1591 30.3529 21.9328C30.2759 21.7066 30.1537 21.4984 29.9936 21.3209C29.6657 20.9515 29.2067 20.7243 28.7141 20.6875C28.661 20.6841 28.6097 20.6815 28.5583 20.6815H28.5609Z" fill="#444445"/>
<path d="M26.6267 16.1349L28.9375 19.7117C29.0507 19.8873 29.2147 20.0242 29.4077 20.1042C29.6007 20.1842 29.8135 20.2034 30.0177 20.1593L34.0943 19.2914L26.6267 16.1349Z" fill="white"/>
<path d="M29.8097 20.436C29.5947 20.4358 29.3832 20.3821 29.1942 20.2798C29.0052 20.1774 28.8446 20.0296 28.727 19.8497L26.4161 16.273C26.389 16.2166 26.3834 16.1523 26.4004 16.0921C26.4173 16.032 26.4557 15.98 26.5082 15.9461C26.5607 15.9122 26.6238 15.8986 26.6856 15.9079C26.7474 15.9172 26.8038 15.9487 26.844 15.9965L29.1549 19.5733C29.2407 19.705 29.3643 19.8078 29.5096 19.8682C29.6548 19.9285 29.8149 19.9435 29.9688 19.9113L34.0463 19.0426C34.1077 19.0391 34.1684 19.0577 34.2173 19.0952C34.2661 19.1326 34.2999 19.1863 34.3124 19.2466C34.325 19.3069 34.3155 19.3696 34.2856 19.4234C34.2558 19.4773 34.2076 19.5186 34.1499 19.5399L30.0733 20.4086C29.9866 20.427 29.8982 20.4361 29.8097 20.436Z" fill="#444445"/>
<g opacity="0.48">
<path d="M26.9022 63.4031H0.445917C0.327722 63.4029 0.214432 63.3559 0.130856 63.2723C0.0472792 63.1887 0.000226211 63.0754 0 62.9572C0.000450866 62.8391 0.047576 62.7259 0.131104 62.6424C0.214632 62.5589 0.327791 62.5118 0.445917 62.5113H26.9022C27.0203 62.5118 27.1335 62.5589 27.217 62.6424C27.3006 62.7259 27.3477 62.8391 27.3481 62.9572C27.3477 63.0753 27.3006 63.1885 27.217 63.272C27.1335 63.3556 27.0203 63.4027 26.9022 63.4031Z" fill="#484849"/>
</g>
<g opacity="0.48">
<path d="M29.3987 63.4031H28.7448C28.6267 63.4027 28.5135 63.3556 28.43 63.272C28.3464 63.1885 28.2993 63.0753 28.2989 62.9572C28.2993 62.8391 28.3464 62.7259 28.43 62.6424C28.5135 62.5589 28.6267 62.5118 28.7448 62.5113H29.3987C29.5168 62.5118 29.63 62.5589 29.7135 62.6424C29.797 62.7259 29.8441 62.8391 29.8446 62.9572C29.8444 63.0754 29.7973 63.1887 29.7137 63.2723C29.6302 63.3559 29.5169 63.4029 29.3987 63.4031Z" fill="#484849"/>
</g>
<g opacity="0.48">
<path d="M51.4388 65H25.6946C25.5685 64.9998 25.4476 64.9496 25.3584 64.8604C25.2692 64.7712 25.219 64.6503 25.2187 64.5242C25.2192 64.3982 25.2695 64.2775 25.3587 64.1885C25.4478 64.0995 25.5686 64.0494 25.6946 64.0491H51.4388C51.5648 64.0494 51.6856 64.0995 51.7747 64.1885C51.8639 64.2775 51.9142 64.3982 51.9147 64.5242C51.9145 64.6503 51.8642 64.7712 51.7751 64.8604C51.6859 64.9496 51.5649 64.9998 51.4388 65Z" fill="#484849"/>
</g>
<g opacity="0.48">
<path d="M54.6466 63.522H53.4569C53.3309 63.5216 53.2102 63.4713 53.1212 63.3821C53.0322 63.2929 52.9821 63.1722 52.9819 63.0462C52.9821 62.9202 53.0322 62.7994 53.1212 62.7102C53.2102 62.6211 53.3309 62.5708 53.4569 62.5703H54.6466C54.7725 62.5708 54.8932 62.6211 54.9822 62.7102C55.0713 62.7994 55.1213 62.9202 55.1216 63.0462C55.1213 63.1722 55.0713 63.2929 54.9822 63.3821C54.8932 63.4713 54.7725 63.5216 54.6466 63.522Z" fill="#484849"/>
</g>
</svg>
