<svg width="158" height="137" viewBox="0 0 158 137" fill="none" xmlns="http://www.w3.org/2000/svg">
<path d="M40.5621 0H42.2821C42.6989 0.156253 43.1397 0.254031 43.5316 0.471635C44.3806 0.926014 45.1079 1.62867 45.542 2.49238C46.1562 3.74528 46.2319 5.19661 46.0585 6.5607C51.8825 6.5655 57.7076 6.5607 63.5317 6.56262C63.5326 6.85787 63.5336 7.15217 63.5336 7.44742C62.4038 7.44837 61.2741 7.45508 60.1443 7.4455C60.129 11.9299 60.1405 16.4133 60.1396 20.8967C60.1079 21.3338 60.2727 21.8706 60.7509 21.9837C61.2003 22.0489 61.6583 22.0029 62.1125 22.0125C62.125 22.302 62.1279 22.5924 62.1231 22.8829C60.1693 22.8829 58.2154 22.8772 56.2626 22.8867C56.2492 22.5924 56.2568 22.2972 56.2885 22.0048C56.7264 22.0039 57.1691 22.0489 57.6051 21.9809C57.995 21.9109 58.1819 21.5025 58.2404 21.1497C58.3343 20.5075 58.2835 19.8575 58.2729 19.2124C57.1873 20.1461 55.8649 20.8181 54.4582 21.1009C53.4358 21.3185 52.332 21.1133 51.4619 20.5334C50.3513 19.8441 49.625 18.7206 49.0347 17.5847C48.5863 16.7037 47.995 15.8496 47.1183 15.3502C47.2275 15.0214 47.3607 14.6993 47.5217 14.3916C48.8661 15.5965 50.9876 15.6243 52.5063 14.7347C53.2336 14.3053 53.5278 13.4397 53.6313 12.645C53.7367 11.6154 53.7846 10.5447 53.4492 9.54964C53.1896 8.83069 52.7354 8.13953 52.0483 7.76951C51.5826 7.5126 51.0431 7.44166 50.519 7.44837C48.9954 7.45221 47.4718 7.4455 45.9492 7.45413C45.9416 11.9701 45.9454 16.4861 45.9483 21.0021C45.9234 21.4249 46.1418 21.9099 46.597 21.9914C47.0339 22.0441 47.4757 22.0067 47.9145 22.0134C47.9165 22.3039 47.9165 22.5934 47.9165 22.8839C45.9646 22.8733 44.0127 22.8944 42.0608 22.8752C42.0617 22.5877 42.0636 22.301 42.0665 22.0144C42.5475 21.9924 43.0458 22.0815 43.5153 21.9483C43.9916 21.7422 44.0788 21.1574 44.0855 20.6954C44.0884 16.281 44.096 11.8656 44.0864 7.45029C42.4364 7.44837 40.7863 7.45413 39.1363 7.44646C39.0807 8.98886 39.1257 10.5332 39.1113 12.0765C39.1152 15.0166 39.1037 17.9566 39.1161 20.8967C39.1018 21.3185 39.2263 21.8399 39.6853 21.9761C40.1453 22.0729 40.6215 21.9991 41.0891 22.0211C41.0939 22.3106 41.0968 22.5992 41.0968 22.8887C39.1439 22.8896 37.1911 22.8954 35.2372 22.8858C35.2392 22.5972 35.243 22.3097 35.2487 22.0221C35.6876 22.0077 36.1303 22.0575 36.5653 21.9914C37.0148 21.9118 37.1968 21.422 37.2399 21.0222C37.2907 20.3761 37.2534 19.7272 37.2658 19.0792C37.2476 17.8425 37.3463 16.5849 37.0512 15.3703C36.9256 14.7721 36.5998 14.2219 36.1533 13.8087C35.1845 12.9297 33.5239 12.6967 32.4939 13.5969C31.5826 14.3801 31.2875 15.6282 31.2089 16.7785C31.1533 17.9566 31.1447 19.1625 31.4686 20.3071C31.6621 21.0759 32.1316 21.7613 32.7765 22.2215C32.4958 22.4487 32.2093 22.6682 31.9228 22.8867C31.3459 22.579 30.815 22.1774 30.3992 21.6703C29.5099 20.6426 29.119 19.2642 29.1123 17.9221C29.0787 16.5417 29.4285 15.1067 30.3235 14.0263C31.1993 12.9 32.6012 12.2021 34.0347 12.2347C35.2162 12.2002 36.367 12.6603 37.2639 13.4167C37.2648 12.0459 37.2668 10.675 37.2648 9.30424C37.2591 8.73291 37.1642 8.08585 36.6995 7.69665C36.4475 7.46851 36.0872 7.44646 35.7643 7.44742C32.4977 7.45508 29.2311 7.44166 25.9636 7.45604C27.0579 8.24306 27.6759 9.52951 27.8877 10.8342C28.155 12.5415 27.9739 14.4357 26.87 15.8323C25.9684 17.0412 24.4889 17.7237 22.9979 17.7812C23.1981 18.4407 23.5977 19.0101 23.9283 19.6083C24.4639 20.4557 25.1893 21.282 26.1744 21.5907C27.0694 21.861 27.9969 21.4431 28.6677 20.8574C28.8037 21.0472 28.9379 21.2399 29.0663 21.4373C28.7827 21.7153 28.4952 21.9933 28.1589 22.2071C27.2667 22.8053 26.1015 22.9826 25.0743 22.6682C24.2186 22.4218 23.5163 21.8304 22.9183 21.1919C22.1882 20.3675 21.7924 19.3226 21.1897 18.4139C20.7537 17.8176 20.2506 17.2636 19.6556 16.8226C19.7169 16.443 19.8587 16.0854 20.0322 15.7451C20.9626 16.6874 22.421 17.0143 23.6897 16.697C24.4429 16.5235 25.2621 16.1957 25.6244 15.4585C26.2041 14.2995 26.182 12.9594 26.1485 11.696C26.0747 10.5198 25.8706 9.24001 25.0293 8.35042C24.4994 7.75896 23.7069 7.44933 22.9202 7.45221C21.4063 7.44646 19.8923 7.45221 18.3783 7.45221C18.3764 11.9337 18.3764 16.4152 18.3773 20.8967C18.3572 21.307 18.4846 21.8073 18.9139 21.9617C19.3815 22.071 19.8693 22 20.3455 22.0077C20.356 22.2953 20.3628 22.5838 20.3704 22.8714C18.4166 22.8973 16.4618 22.8733 14.508 22.8858C14.5061 22.5944 14.5071 22.3029 14.5128 22.0115C14.9785 21.9991 15.4547 22.0643 15.9137 21.9617C16.4494 21.7623 16.5126 21.098 16.527 20.6072C16.5299 16.8676 16.526 13.1281 16.5289 9.38955C16.5193 8.92175 16.4772 8.43286 16.2376 8.0197C16.0498 7.67173 15.6617 7.44358 15.266 7.45125C14.1276 7.44262 12.9892 7.46467 11.8509 7.44166C11.824 11.926 11.8461 16.4113 11.8403 20.8967C11.8144 21.3146 11.9543 21.8188 12.3951 21.9646C12.857 22.0643 13.3371 21.9962 13.8066 22.0087C13.8258 22.2991 13.8325 22.5905 13.8181 22.881C11.8614 22.8752 9.9047 22.8973 7.94897 22.8695C7.95089 22.58 7.96143 22.2905 7.99209 22.0039C8.43095 22.0058 8.87461 22.0489 9.3106 21.9809C9.65748 21.909 9.85871 21.5639 9.92483 21.2399C10.0063 20.8104 9.97848 20.3704 9.98328 19.9361C9.97465 18.5366 9.98998 17.137 9.98328 15.7374C8.92252 15.7528 7.86177 15.7336 6.80102 15.747C6.80102 16.5053 6.80197 17.2626 6.80293 18.0208C6.80102 18.7264 6.7694 19.4473 6.53176 20.1192C6.27783 20.8372 5.59845 21.3424 4.8702 21.5035C4.01546 21.6961 3.09365 21.7383 2.26192 21.4258C1.23374 21.0453 0.357926 20.171 0.121245 19.082C-0.00524054 18.4618 0.000508337 17.809 0.156699 17.1945C0.465247 16.0135 1.52887 15.1067 2.71707 14.8929C3.55073 14.7558 4.39971 14.8689 5.24007 14.821C5.173 14.2276 5.15958 13.6304 5.12509 13.0351C4.38917 13.2451 3.61588 13.3572 2.85314 13.2614C1.84509 13.1185 0.906027 12.4945 0.418292 11.5963C-0.184431 10.4153 -0.123103 8.84315 0.730673 7.79539C1.43497 6.93169 2.55609 6.43513 3.66955 6.47826C4.51757 6.50031 5.44992 6.64602 6.06702 7.28445C6.65345 7.85195 6.77131 8.71278 6.78377 9.49021C6.80389 11.2675 6.79527 13.0457 6.79814 14.8239C7.85794 14.8479 8.91869 14.8277 9.97849 14.8412C9.98615 13.0581 9.97945 11.2742 9.98232 9.49117C9.99094 8.87382 9.94303 8.17116 9.46009 7.72349C8.99056 7.30554 8.31597 7.44646 7.74199 7.42345C7.74487 7.13874 7.74774 6.85308 7.74966 6.56837C17.3951 6.54537 27.0416 6.56933 36.687 6.56166C36.5462 5.30972 36.5845 4.00027 37.0483 2.81351C37.6309 1.35259 39.0117 0.254989 40.5621 0ZM39.7898 1.31904C39.0682 1.9546 38.7396 2.90937 38.615 3.83826C38.5029 4.74223 38.4665 5.66249 38.5824 6.56742C40.4385 6.55687 42.2936 6.56454 44.1497 6.56358C44.2675 5.30781 44.2608 4.01177 43.9063 2.79338C43.661 1.96323 43.0765 1.18484 42.2428 0.886711C41.4255 0.592419 40.4375 0.715121 39.7898 1.31904ZM2.95375 7.07452C2.54938 7.1838 2.20442 7.47809 2.02427 7.85578C1.80867 8.30537 1.73968 8.80864 1.71094 9.30232C1.67932 10.12 1.6956 10.9598 1.96966 11.741C2.14597 12.1887 2.51488 12.5903 2.994 12.7083C3.40699 12.784 3.8746 12.7274 4.19944 12.4398C4.92194 11.8896 5.12604 10.9262 5.15383 10.0663C5.1845 9.1499 5.03789 8.12707 4.35659 7.45413C4.00205 7.08123 3.44628 6.95277 2.95375 7.07452ZM54.5186 8.28428C55.2574 9.31957 55.5363 10.6348 55.4538 11.8915C55.3647 13.0476 54.7831 14.1375 53.9207 14.9035C52.9931 15.7844 51.7081 16.1592 50.4586 16.2426C50.8553 17.1936 51.2348 18.2193 52.0426 18.9056C52.697 19.4262 53.4991 19.847 54.3567 19.8182C55.7576 19.8259 57.0819 19.1673 58.1417 18.2902C58.3371 18.1742 58.2614 17.9212 58.2921 17.7333C58.295 15.0175 58.2921 12.3018 58.2931 9.58607C58.2816 9.08184 58.2844 8.54981 58.0411 8.09256C57.8638 7.71007 57.4575 7.43687 57.032 7.45029C55.9147 7.44933 54.7984 7.44166 53.6821 7.46084C53.9523 7.74458 54.2954 7.95452 54.5186 8.28428ZM2.83972 15.4719C2.20155 15.7192 1.89396 16.4142 1.79622 17.0498C1.67069 17.994 1.63524 18.9756 1.88533 19.9036C1.99745 20.356 2.30216 20.7653 2.72282 20.9734C3.292 21.2514 4.02025 21.0807 4.43229 20.6081C5.04076 19.9429 5.18354 18.9919 5.15862 18.1225C5.13946 17.2808 4.96219 16.3519 4.29814 15.771C3.9206 15.4039 3.33033 15.2764 2.83972 15.4719Z" fill="#C9252C"/>
<path d="M67.8929 6.5646C79.2143 6.55981 90.5367 6.5646 101.859 6.56268C101.861 6.85697 101.861 7.15222 101.86 7.44748C99.4501 7.45035 97.0411 7.45227 94.6312 7.44652C94.612 8.65148 94.6216 9.85741 94.6273 11.0624C96.2295 9.84782 98.6931 9.90342 100.185 11.2781C101.398 12.3172 101.931 13.966 101.856 15.5314C101.861 16.9961 101.296 18.4944 100.159 19.4511C98.9921 20.5257 97.2165 20.7606 95.7533 20.2171C95.898 19.9765 96.0455 19.7368 96.194 19.4981C96.7939 19.8049 97.5193 19.8528 98.1479 19.6036C98.8244 19.316 99.3198 18.6977 99.566 18.0151C99.9388 17.0086 99.9675 15.9187 99.9436 14.8575C99.9215 14.0187 99.7998 13.1665 99.451 12.3968C99.085 11.6347 98.3539 10.9819 97.4771 10.9454C96.7862 10.8841 96.0647 11.1266 95.5904 11.6404C94.8909 12.3632 94.6848 13.4119 94.6264 14.3811C94.6178 16.5849 94.6206 18.7878 94.6245 20.9907C94.5948 21.4163 94.8257 21.8975 95.277 21.9847C95.712 22.0259 96.1519 21.9914 96.5898 21.9972C96.5927 22.2886 96.5907 22.58 96.586 22.8714C94.6369 22.8647 92.6889 22.8743 90.7398 22.8657C90.7379 22.5791 90.737 22.2915 90.7389 22.0049C91.194 21.9828 91.6588 22.0461 92.1101 21.9569C92.4598 21.8697 92.6496 21.5112 92.7099 21.1805C92.8096 20.6417 92.7368 20.0905 92.7684 19.547C91.8523 20.1883 90.7389 20.5756 89.612 20.4759C88.0626 20.4097 86.6846 19.3543 86.0043 17.995C85.4447 16.8811 85.3479 15.5927 85.4964 14.3715C85.6737 12.993 86.4173 11.6759 87.5873 10.9042C89.1291 9.86891 91.3138 9.98682 92.7684 11.1295C92.7406 10.3319 92.8 9.53148 92.7262 8.7368C92.6582 8.15205 92.2854 7.47048 91.6271 7.45131C88.993 7.44939 86.3588 7.44652 83.7256 7.45323C83.7285 11.9654 83.7218 16.4766 83.7285 20.9887C83.7122 21.399 83.9 21.8956 84.3456 21.9895C84.796 22.047 85.2521 22.0001 85.7053 22.0164C85.7072 22.3059 85.7072 22.5963 85.6986 22.8868C83.7496 22.8762 81.8006 22.881 79.8515 22.8849C79.8467 22.5944 79.8477 22.3049 79.8621 22.0154C80.4073 21.9531 81.0493 22.1745 81.5179 21.8055C81.9539 21.3319 81.8676 20.6293 81.8811 20.0349C81.8811 15.841 81.8858 11.6471 81.8849 7.45227C80.7111 7.4446 79.5382 7.44939 78.3644 7.45227C78.3586 9.45671 78.3653 11.4612 78.3605 13.4666C77.7473 13.4714 77.135 13.4704 76.5236 13.4694C76.4738 12.7946 76.6511 12.0507 76.2592 11.4477C75.8414 10.6722 74.9416 10.3003 74.0945 10.2878C73.395 10.2409 72.6524 10.3914 72.1148 10.8649C71.3751 11.5081 71.2266 12.6805 71.6932 13.525C71.9519 14.0379 72.4713 14.3954 73.0366 14.4827C74.5506 14.6907 76.1001 14.5239 77.6064 14.8067C78.4056 14.9936 79.0993 15.5314 79.543 16.2149C80.2032 17.2674 80.23 18.6373 79.7701 19.7723C79.0016 21.5783 77.1043 22.8072 75.1572 22.881C73.5177 23.0555 71.8408 22.5053 70.5846 21.447C68.6029 19.8863 67.5259 17.4476 67.1369 15.0032C67.3965 14.9907 67.6553 14.9792 67.9159 14.9687C68.1095 16.3635 68.5962 17.7266 69.4203 18.875C70.2377 20.0273 71.3665 21.0185 72.7492 21.4067C73.9038 21.7125 75.2013 21.7384 76.2812 21.1651C77.0976 20.7721 77.7137 20.0234 78.0117 19.1731C78.2436 18.4647 78.19 17.6902 77.9993 16.9799C77.7607 16.1948 76.9912 15.6963 76.2036 15.6033C74.8343 15.425 73.4267 15.6944 72.0736 15.3531C71.3377 15.1662 70.5913 14.8498 70.0901 14.2574C69.4931 13.5615 69.4012 12.5156 69.7614 11.6883C70.1074 10.9004 70.8874 10.4144 71.6626 10.1172C73.2331 9.58037 75.0154 9.65706 76.516 10.3808C76.4939 9.65706 76.6003 8.89785 76.3281 8.20861C76.1605 7.76957 75.7331 7.42639 75.2501 7.44939C72.7961 7.44652 70.3412 7.45419 67.8872 7.44652C67.8862 7.15222 67.8881 6.85889 67.8929 6.5646ZM89.177 11.0854C88.4123 11.3902 87.8939 12.1178 87.6515 12.8818C87.3056 13.9842 87.3113 15.1595 87.3765 16.3021C87.4656 17.2713 87.6658 18.3085 88.3586 19.0418C89.0994 19.8854 90.4993 19.9889 91.3751 19.2978C92.0641 18.7782 92.3995 17.9279 92.5528 17.1026C92.7579 15.9158 92.755 14.6965 92.5691 13.5078C92.4292 12.668 92.0574 11.811 91.3291 11.3222C90.7082 10.9013 89.8746 10.8294 89.177 11.0854Z" fill="#C9252C"/>
<path d="M0.0297047 29.0257C41.5495 29.0228 83.0693 29.0257 124.59 29.0247C129.883 29.0324 135.178 29.0084 140.47 29.0362L140.591 29.0593C136.54 31.9303 132.504 34.8234 128.483 37.7356C122.506 42.081 116.509 46.4004 110.505 50.7075C107.492 52.8413 104.471 54.9646 101.431 57.0602C100.012 58.0015 98.6012 58.9563 97.184 59.9015C90.8137 64.0887 84.2623 68.0515 77.2903 71.1622C73.5513 72.8177 69.6389 74.1857 65.5655 74.6966C63.2657 74.9612 60.8913 75.0561 58.6433 74.4071C56.952 73.9249 55.3901 73.043 54.0438 71.9195C52.7761 70.8881 51.7441 69.6141 50.6364 68.4225C48.0654 65.5055 45.4955 62.5836 42.7693 59.8094C38.0415 55.0739 32.7032 50.95 26.9318 47.5671C26.6693 47.4118 26.4038 47.2162 26.0848 47.221C22.0794 47.0916 18.074 47.292 14.0782 47.5489C14.7087 47.7904 15.3757 47.9189 16.0138 48.1394C19.4654 49.259 22.6955 50.9586 25.7944 52.826C28.5963 54.539 31.2917 56.4217 33.8885 58.43C35.943 59.9628 37.8517 61.6797 39.7289 63.4215C41.5601 65.1728 43.3318 66.9923 44.9311 68.9603C47.089 71.5965 49.2354 74.3477 52.1264 76.2275C53.8962 77.4296 55.9248 78.2252 58.0137 78.6643C59.9292 79.0995 61.9079 79.0995 63.8608 79.0084C66.2286 78.8339 68.5695 78.3575 70.8386 77.6616C74.2173 76.6244 77.4695 75.2123 80.6335 73.644C87.1878 70.3215 93.3741 66.3241 99.3754 62.0976C108.656 55.6328 117.674 48.8027 126.674 41.9563C132.398 37.6445 138.056 33.2445 143.851 29.0286C147.563 29.019 151.274 29.0257 154.986 29.0267L154.882 29.1177C153.049 30.3189 151.243 31.5622 149.443 32.8132C137.316 41.1655 125.531 49.9991 113.531 58.5297C110.628 60.6252 107.674 62.6479 104.727 64.6811C98.675 68.8194 92.4964 72.7899 86.0351 76.263C82.5816 78.137 79.0218 79.8271 75.3384 81.1998C71.2813 82.7 67.0316 83.8101 62.6927 83.9797C58.9355 84.1427 55.1276 83.4381 51.7278 81.8171C48.3903 80.1655 45.7437 77.4286 43.4899 74.5173C42.3889 73.1523 41.4154 71.6885 40.254 70.3723C38.4995 68.3353 36.6195 66.4047 34.6273 64.5986C29.6465 60.0385 23.9604 56.3115 18.0184 53.1308C14.3734 51.2021 10.6066 49.4862 6.70086 48.1537C6.30224 48.0272 5.88253 48.148 5.47625 48.1528C3.85685 48.286 2.22979 48.3675 0.619012 48.588C0.412993 48.6148 0.206018 48.6254 0 48.6388C0.0268303 43.0664 0.00383243 37.494 0.0114982 31.9226C0.0220387 30.9573 -0.0105407 29.9901 0.0297047 29.0257Z" fill="#C9252C"/>
<path d="M148.487 36.3676C151.623 34.0698 154.765 31.7768 157.967 29.5701C157.968 31.8583 157.969 34.1456 157.967 36.4337C157.892 36.4961 157.815 36.5545 157.74 36.6111C145.402 44.927 133.574 53.9638 121.515 62.6727C118.526 64.8756 115.476 66.9932 112.449 69.1424C106.738 73.1695 100.953 77.0969 94.9704 80.7108C91.6904 82.6827 88.3673 84.5855 84.9484 86.3043C81.3071 88.1237 77.5892 89.8176 73.7036 91.0494C69.3993 92.4212 64.9244 93.4018 60.3901 93.4315C56.5744 93.5197 52.7435 92.8535 49.1866 91.4693C45.7475 90.0965 42.5853 88.0413 39.9129 85.4799C38.6327 84.2577 37.5537 82.8485 36.4537 81.4672C35.4447 80.1769 34.5142 78.8224 33.4219 77.5982C29.7643 73.2529 25.4312 69.4999 20.7331 66.3202C14.6158 62.1714 7.79419 59.1824 0.827907 56.7773C0.547147 56.6872 0.257765 56.6105 0.00575257 56.4533C0.016293 55.0777 0.0114999 53.7021 0.00670881 52.3265C2.99636 53.147 5.92278 54.1929 8.80799 55.326C12.7214 56.8808 16.5351 58.683 20.2367 60.6913C27.3065 64.5986 33.6959 69.777 38.8282 76.028C39.8975 77.3787 40.9717 78.7265 42.0813 80.0446C44.2948 82.5188 46.9453 84.6219 49.9253 86.0972C51.7709 86.96 53.7084 87.6425 55.7082 88.049C58.1603 88.5589 60.6795 88.7075 63.1785 88.5551C65.5693 88.4199 67.9294 87.9665 70.2492 87.3875C74.1435 86.3906 77.8968 84.9038 81.5151 83.1629C88.374 79.8644 94.8104 75.7682 101.095 71.4929C106.916 67.3699 112.696 63.1875 118.4 58.9035L118.517 59.0971C118.504 59.0262 118.49 58.9552 118.478 58.8862C119.695 57.92 120.966 57.0237 122.195 56.0737C128.178 51.5797 134.143 47.0637 140.132 42.5803C142.921 40.5145 145.682 38.4104 148.487 36.3676Z" fill="#C9252C"/>
<path d="M140.839 53.1605C146.489 48.887 152.203 44.697 157.972 40.5855C157.964 66.7641 157.969 92.9436 157.97 119.123C105.32 119.126 52.6716 119.122 0.0220314 119.125C-0.00767355 100.67 0.0306571 82.2149 0.00286866 63.7608C0.569178 63.8413 1.09524 64.079 1.64239 64.2362C8.09218 66.4429 14.3053 69.407 19.9368 73.2634C21.9902 74.6898 23.9565 76.2456 25.7944 77.9414C27.3132 79.2624 28.7131 80.7147 30.0451 82.2226C30.9228 83.1438 31.6453 84.1954 32.4598 85.1703C33.3596 86.2497 34.2105 87.3712 35.1754 88.396C37.6361 91.035 40.4964 93.3155 43.6652 95.0487C46.9797 96.8576 50.62 98.0549 54.3523 98.6128C56.7574 99.0097 59.2067 99.0538 61.6377 98.9339C63.9968 98.8064 66.3454 98.4939 68.6576 98.0031C72.3171 97.2266 75.8586 95.9805 79.3178 94.5704C84.7998 92.2151 90.0787 89.3996 95.139 86.2429C98.3414 84.2749 101.457 82.1717 104.562 80.0561C107.542 78.0325 110.458 75.9159 113.372 73.7993C116.125 71.7651 118.894 69.753 121.626 67.6891C128.053 62.8769 134.431 57.9996 140.839 53.1605Z" fill="#C9252C"/>
<path d="M110.359 125.253C111.312 125.225 112.262 125.148 113.216 125.137C113.209 128.448 113.213 131.759 113.213 135.071C113.213 135.417 113.239 135.836 113.553 136.054C113.859 136.254 114.248 136.172 114.594 136.193C114.597 136.385 114.599 136.577 114.601 136.771C113.774 136.777 112.947 136.772 112.12 136.776C112.036 136.289 111.998 135.797 111.915 135.311C111.546 135.948 111.023 136.547 110.299 136.773C109.607 136.977 108.819 136.906 108.201 136.521C107.461 136.065 106.932 135.296 106.721 134.456C106.501 133.626 106.495 132.742 106.684 131.905C106.897 130.994 107.463 130.156 108.265 129.665C109.068 129.173 110.154 129.103 110.96 129.627C111.373 129.873 111.665 130.267 111.929 130.66C111.911 129.284 111.931 127.906 111.919 126.53C111.927 126.258 111.723 126.018 111.474 125.935C111.116 125.808 110.731 125.836 110.36 125.833C110.358 125.638 110.358 125.444 110.359 125.253ZM109.368 129.996C108.854 130.171 108.462 130.621 108.311 131.137C108.058 131.97 108.049 132.857 108.11 133.72C108.179 134.418 108.265 135.199 108.804 135.71C109.254 136.22 110.064 136.317 110.647 135.989C111.173 135.682 111.55 135.149 111.729 134.573C111.939 133.864 111.953 133.112 111.905 132.38C111.826 131.57 111.522 130.72 110.849 130.219C110.434 129.891 109.86 129.852 109.368 129.996Z" fill="#C9252C"/>
<path d="M116.78 125.145C117.382 125.006 117.993 125.659 117.785 126.25C117.664 126.696 117.151 126.975 116.712 126.845C116.341 126.731 116.033 126.36 116.078 125.961C116.086 125.574 116.403 125.218 116.78 125.145Z" fill="#C9252C"/>
<path d="M92.0527 125.833C92.0517 125.638 92.0527 125.444 92.0556 125.251C93.8225 125.257 95.5895 125.252 97.3565 125.254C97.3545 125.446 97.3565 125.64 97.3584 125.834C96.8428 125.844 96.3149 125.789 95.8128 125.925C95.5224 126.023 95.5483 126.387 95.5234 126.635C95.5215 129.54 95.5186 132.447 95.5243 135.352C95.5464 135.626 95.5119 136.03 95.8482 136.126C96.3398 136.255 96.8591 136.16 97.3622 136.2C97.3584 136.39 97.3565 136.583 97.3584 136.777C95.5885 136.769 93.8187 136.78 92.0498 136.771C92.0517 136.575 92.0556 136.383 92.0613 136.191C92.5577 136.179 93.0627 136.23 93.5533 136.134C93.9068 136.068 93.8704 135.634 93.8934 135.359C93.8982 132.451 93.8992 129.542 93.8925 126.634C93.8791 126.394 93.904 126.046 93.628 125.946C93.1221 125.767 92.5768 125.854 92.0527 125.833Z" fill="#C9252C"/>
<path d="M130.327 125.839C130.317 125.638 130.328 125.438 130.364 125.242C132.337 125.274 134.311 125.239 136.285 125.258C137.098 125.303 137.945 125.439 138.635 125.903C139.31 126.344 139.802 127.068 139.914 127.873C140.047 128.762 139.879 129.776 139.195 130.412C138.375 131.143 137.282 131.538 136.189 131.569C135.394 131.592 134.599 131.572 133.804 131.582C133.812 132.939 133.783 134.296 133.819 135.652C133.802 135.954 134.09 136.159 134.369 136.181C134.859 136.206 135.353 136.187 135.845 136.19C135.847 136.384 135.849 136.578 135.854 136.773C134.012 136.777 132.171 136.772 130.33 136.775C130.316 136.578 130.324 136.381 130.354 136.188C130.816 136.184 131.28 136.216 131.742 136.169C131.989 136.141 132.156 135.888 132.14 135.65C132.141 132.611 132.143 129.571 132.139 126.532C132.158 126.287 132.062 126.004 131.807 125.926C131.326 125.787 130.818 125.844 130.327 125.839ZM133.907 126.065C133.756 126.288 133.82 126.571 133.804 126.824C133.803 128.219 133.8 129.616 133.805 131.013C134.571 130.999 135.34 131.045 136.105 130.965C136.752 130.89 137.446 130.634 137.791 130.046C138.189 129.333 138.2 128.479 138.126 127.688C138.064 127.016 137.688 126.348 137.06 126.061C136.332 125.741 135.519 125.777 134.741 125.784C134.451 125.804 134.095 125.807 133.907 126.065Z" fill="#C9252C"/>
<path d="M154.545 126.455C154.707 126.433 154.869 126.413 155.038 126.399C155.147 127.39 155.059 128.398 155.085 129.397C155.87 129.404 156.656 129.391 157.443 129.404C157.438 129.644 157.435 129.884 157.43 130.125C156.65 130.117 155.871 130.125 155.092 130.121C155.081 131.707 155.086 133.293 155.09 134.879C155.082 135.312 155.276 135.796 155.701 135.972C156.134 136.176 156.674 135.995 156.956 135.623C157.331 135.154 157.402 134.53 157.437 133.951C157.615 133.951 157.794 133.952 157.977 133.958C157.898 134.712 157.821 135.549 157.278 136.133C156.552 136.973 155.122 137.049 154.296 136.32C153.877 135.93 153.759 135.332 153.78 134.784C153.78 133.229 153.784 131.675 153.779 130.12C153.357 130.122 152.936 130.121 152.517 130.122C152.514 129.94 152.514 129.761 152.515 129.582C153.011 129.471 153.51 129.258 153.829 128.843C154.355 128.168 154.509 127.29 154.545 126.455Z" fill="#C9252C"/>
<path d="M141.875 129.263C142.782 129.074 143.779 129.227 144.542 129.772C145.374 130.341 145.909 131.287 146.041 132.28C146.229 133.584 145.972 135.068 144.958 135.989C144.206 136.681 143.141 137.032 142.126 136.889C141.307 136.799 140.562 136.331 140.053 135.695C139.483 135.018 139.234 134.124 139.203 133.252C139.167 132.424 139.327 131.575 139.748 130.854C140.216 130.077 140.979 129.456 141.875 129.263ZM142.363 129.761C141.679 129.852 141.161 130.431 140.923 131.048C140.618 131.904 140.612 132.832 140.659 133.73C140.722 134.508 140.888 135.352 141.485 135.907C142.129 136.573 143.33 136.501 143.916 135.792C144.542 135.104 144.605 134.125 144.658 133.244C144.663 132.293 144.654 131.242 144.063 130.445C143.687 129.911 143 129.658 142.363 129.761Z" fill="#C9252C"/>
<path d="M147.314 130.096C147.94 129.308 149.079 129.107 150.011 129.375C150.374 129.461 150.683 129.675 151.012 129.844C151.275 129.644 151.448 129.187 151.851 129.338C151.905 130.198 151.979 131.058 152.041 131.919C151.864 131.918 151.691 131.918 151.518 131.919C151.365 131.438 151.163 130.964 150.834 130.577C150.218 129.838 149.073 129.628 148.222 130.053C147.664 130.328 147.356 131.109 147.756 131.637C148.209 132.176 148.97 132.241 149.618 132.369C150.378 132.53 151.228 132.585 151.841 133.119C152.252 133.494 152.544 134.025 152.574 134.587C152.595 135.263 152.173 135.861 151.676 136.28C151.094 136.801 150.271 136.963 149.512 136.905C148.878 136.858 148.294 136.573 147.783 136.211C147.613 136.399 147.457 136.598 147.284 136.782C147.166 136.928 146.955 136.833 146.797 136.855C146.765 135.888 146.682 134.924 146.653 133.958C146.816 133.956 146.982 133.955 147.15 133.956C147.405 134.54 147.627 135.163 148.08 135.632C148.549 136.163 149.29 136.367 149.98 136.334C150.458 136.308 150.974 136.172 151.295 135.791C151.642 135.397 151.69 134.72 151.299 134.34C151.081 134.096 150.745 134.032 150.446 133.953C149.686 133.782 148.915 133.656 148.172 133.418C147.644 133.249 147.158 132.881 146.943 132.359C146.6 131.619 146.795 130.706 147.314 130.096Z" fill="#C9252C"/>
<path d="M97.8269 129.476C98.6366 129.443 99.4444 129.369 100.254 129.339C100.36 129.863 100.404 130.394 100.481 130.922C100.905 130.229 101.549 129.632 102.359 129.447C103.115 129.27 104.007 129.305 104.621 129.836C105.19 130.352 105.417 131.151 105.428 131.901C105.451 133.117 105.422 134.335 105.443 135.553C105.44 135.764 105.511 136.021 105.728 136.108C106.041 136.229 106.386 136.176 106.715 136.194C106.718 136.386 106.72 136.578 106.725 136.771C105.442 136.776 104.159 136.779 102.876 136.77C102.878 136.576 102.882 136.383 102.887 136.191C103.266 136.162 103.728 136.266 104.025 135.963C104.183 135.805 104.143 135.559 104.159 135.357C104.152 134.3 104.166 133.243 104.15 132.186C104.139 131.592 104.008 130.935 103.53 130.536C102.969 130.084 102.125 130.126 101.531 130.495C100.863 130.926 100.509 131.731 100.483 132.509C100.455 133.457 100.477 134.406 100.469 135.354C100.467 135.622 100.485 135.956 100.751 136.104C101.07 136.22 101.42 136.183 101.756 136.194C101.755 136.386 101.757 136.58 101.759 136.774C100.472 136.773 99.1838 136.777 97.8959 136.772C97.8988 136.578 97.9036 136.386 97.9103 136.195C98.3377 136.176 99.041 136.29 99.1675 135.732C99.1953 134.202 99.1704 132.671 99.179 131.14C99.1838 130.83 99.1799 130.474 98.9356 130.246C98.652 129.935 98.1968 130.007 97.8221 129.974C97.8231 129.807 97.8231 129.64 97.8269 129.476Z" fill="#C9252C"/>
<path d="M122.044 129.358C122.866 129.208 123.753 129.212 124.532 129.548C125.173 129.811 125.661 130.446 125.68 131.15C125.699 132.52 125.679 133.892 125.688 135.263C125.693 135.592 125.755 135.992 126.07 136.172C126.379 136.284 126.693 136.132 126.974 136.009C127.045 136.138 127.124 136.267 127.182 136.407C126.709 137.038 125.693 137.197 125.061 136.711C124.761 136.453 124.595 136.082 124.442 135.726C123.957 136.127 123.523 136.625 122.907 136.828C122.125 137.067 121.254 137.067 120.492 136.763C119.802 136.478 119.362 135.701 119.523 134.963C119.646 134.228 120.254 133.701 120.877 133.363C121.956 132.787 123.174 132.542 124.377 132.388C124.333 131.751 124.542 131.011 124.097 130.473C123.445 129.657 122.126 129.671 121.337 130.272C121.026 130.481 121.316 130.811 121.445 131.039C121.648 131.316 121.643 131.728 121.412 131.988C121.021 132.431 120.184 132.293 119.961 131.744C119.791 131.359 119.869 130.904 120.099 130.562C120.537 129.904 121.275 129.49 122.044 129.358ZM121.732 133.686C121.045 134.089 120.8 135.012 121.08 135.735C121.238 136.137 121.664 136.405 122.097 136.383C123.012 136.413 123.853 135.774 124.196 134.946C124.459 134.296 124.367 133.577 124.369 132.894C123.469 133.065 122.531 133.211 121.732 133.686Z" fill="#C9252C"/>
<path d="M114.934 129.473C115.896 129.456 116.859 129.432 117.821 129.39C117.836 131.527 117.8 133.666 117.838 135.803C118.003 136.389 118.767 136.137 119.216 136.192C119.215 136.384 119.216 136.577 119.217 136.771C117.838 136.777 116.459 136.772 115.081 136.776C115.078 136.582 115.076 136.39 115.076 136.198C115.495 136.144 115.999 136.312 116.354 136.024C116.571 135.761 116.494 135.384 116.514 135.069C116.505 133.692 116.514 132.316 116.51 130.941C116.511 130.68 116.428 130.396 116.199 130.25C115.83 129.992 115.352 130.074 114.93 130.057C114.929 129.861 114.93 129.666 114.934 129.473Z" fill="#C9252C"/>
</svg>
