<svg width="13" height="11" viewBox="0 0 13 11" fill="none" xmlns="http://www.w3.org/2000/svg">
<path d="M6.36843 2.31579C7.96632 2.31579 9.26317 3.61263 9.26317 5.21053C9.26317 5.58685 9.1879 5.94 9.05475 6.27L10.7453 7.96053C11.6195 7.23106 12.3084 6.28737 12.7311 5.21053C11.7295 2.66895 9.25738 0.868422 6.36264 0.868422C5.55211 0.868422 4.77632 1.01316 4.05843 1.27369L5.30895 2.52421C5.63895 2.39105 5.99211 2.31579 6.36843 2.31579ZM0.578948 0.735264L1.89895 2.05526L2.16527 2.32158C1.20421 3.06842 0.451579 4.06421 0 5.21053C1.00158 7.75211 3.47369 9.55264 6.36843 9.55264C7.2658 9.55264 8.12264 9.37895 8.90422 9.06632L9.14738 9.30948L10.8437 11L11.579 10.2647L1.31421 0L0.578948 0.735264ZM3.78053 3.93685L4.6779 4.83421C4.64895 4.95579 4.63158 5.08316 4.63158 5.21053C4.63158 6.17158 5.40737 6.94737 6.36843 6.94737C6.4958 6.94737 6.62316 6.93001 6.74474 6.90106L7.64211 7.79843C7.25422 7.98948 6.8258 8.10527 6.36843 8.10527C4.77053 8.10527 3.47369 6.80843 3.47369 5.21053C3.47369 4.75316 3.58948 4.32474 3.78053 3.93685ZM6.2758 3.48527L8.09948 5.30895L8.11106 5.21632C8.11106 4.25527 7.33527 3.47948 6.37422 3.47948L6.2758 3.48527Z" fill="#A7A7A7"/>
</svg>
